<svg xmlns="http://www.w3.org/2000/svg" xmlns:xlink="http://www.w3.org/1999/xlink" xmlns:lucid="lucid" width="1700" height="1804"><g transform="translate(-2780 -15)" lucid:page-tab-id="0_0"><path d="M3148 100c17.67 0 32 17.9 32 40s-14.33 40-32 40h-96c-17.67 0-32-17.9-32-40s14.33-40 32-40z" stroke="#5e5e5e" stroke-width="3" fill="#fff"/><use xlink:href="#a" transform="matrix(1,0,0,1,3025,105) translate(48.48765432098766 39.65277777777778)"/><path d="M2880 46c0-3.3 2.7-6 6-6h68c3.3 0 6 2.7 6 6v48c0 3.3-2.7 6-6 6h-68c-3.3 0-6-2.7-6-6z" stroke="#000" stroke-opacity="0" stroke-width="3" fill="#fff" fill-opacity="0"/><use xlink:href="#b" transform="matrix(1,0,0,1,2885,45) translate(14.660493827160494 30.27777777777778)"/><use xlink:href="#c" transform="matrix(1,0,0,1,2885,45) translate(40.52469135802469 30.27777777777778)"/><path d="M3049.18 225.3c1.56-2.93 5.5-5.3 8.82-5.3h106c8.84 0 16 26.86 16 60s-7.16 60-16 60h-106c-3.3 0-7.26-2.37-8.82-5.3l-26.36-49.4c-1.56-2.93-1.56-7.67 0-10.6z" stroke="#5e5e5e" stroke-width="3" fill="#a3d977"/><use xlink:href="#d" transform="matrix(1,0,0,1,3025,225) translate(33.628456790123465 31.52777777777778)"/><use xlink:href="#e" transform="matrix(1,0,0,1,3025,225) translate(96.40623456790124 31.52777777777778)"/><use xlink:href="#f" transform="matrix(1,0,0,1,3025,225) translate(32.85685185185185 58.19444444444445)"/><use xlink:href="#g" transform="matrix(1,0,0,1,3025,225) translate(46.79512345679012 84.86111111111111)"/><path d="M3100 182.5V200" stroke="#5e5e5e" stroke-width="2" fill="none"/><path d="M3101 182.53h-2v-1.03h2" fill="#5e5e5e"/><path d="M3100 215.26l-4.64-14.26h9.28z" stroke="#5e5e5e" stroke-width="2" fill="#5e5e5e"/><path d="M3020 405.92c0-3.3 2.67-6.33 5.95-6.74l148.1-18.44c3.28-.4 5.95 1.95 5.95 5.26v108c0 3.3-2.7 6-6 6h-148c-3.3 0-6-2.7-6-6z" stroke="#5e5e5e" stroke-width="3" fill="#ffc374"/><use xlink:href="#h" transform="matrix(1,0,0,1,3025,405) translate(46.82098765432099 48.71527777777778)"/><use xlink:href="#i" transform="matrix(1,0,0,1,3025,405) translate(70.27777777777777 48.71527777777778)"/><use xlink:href="#j" transform="matrix(1,0,0,1,3025,405) translate(92.0679012345679 48.71527777777778)"/><path d="M3100.45 342.5v27.4" stroke="#5e5e5e" stroke-width="2" fill="none"/><path d="M3101.45 342.53h-2v-1.03h2" fill="#5e5e5e"/><path d="M3100.45 385.16l-4.64-14.27h9.28z" stroke="#5e5e5e" stroke-width="2" fill="#5e5e5e"/><path d="M3635.2 723.6c2.65-2 6.95-2 9.6 0l70.4 52.8c2.65 2 2.65 5.2 0 7.2l-70.4 52.8c-2.65 2-6.95 2-9.6 0l-70.4-52.8c-2.65-2-2.65-5.2 0-7.2z" stroke="#5e5e5e" stroke-width="3" fill="#cb8bf6"/><use xlink:href="#k" transform="matrix(1,0,0,1,3565,725) translate(51.239567901234565 59.02777777777778)"/><use xlink:href="#l" transform="matrix(1,0,0,1,3565,725) translate(68.52351851851851 59.02777777777778)"/><use xlink:href="#m" transform="matrix(1,0,0,1,3565,725) translate(87.65932098765433 59.02777777777778)"/><path d="M3354.06 781h-87.93l-2.64.7-1.8 1.8-.7 2.63v56.04h-2v-56.3l.92-3.42 2.53-2.53 3.42-.92h88.2m206.32 2h-173.74v-2h173.73" fill="#5e5e5e"/><path d="M3561.28 779.4l.28 1.6h-1.2v-2h1.1M3260 857.43l-4.64-14.26h9.28z" fill="#5e5e5e"/><path d="M3260 860.67l-6-18.5h12m-9.26 2l3.26 10.03 3.26-10.03" fill="#5e5e5e"/><use xlink:href="#n" transform="matrix(1,0,0,1,3354.0628571657826,769.3333333333334) translate(0 14.222222222222223)"/><path d="M3255.2 863.6c2.65-2 6.95-2 9.6 0l70.4 52.8c2.65 2 2.65 5.2 0 7.2l-70.4 52.8c-2.65 2-6.95 2-9.6 0l-70.4-52.8c-2.65-2-2.65-5.2 0-7.2z" stroke="#5e5e5e" stroke-width="3" fill="#3fbeda"/><use xlink:href="#o" transform="matrix(1,0,0,1,3185,865) translate(51.239567901234565 59.02777777777778)"/><use xlink:href="#l" transform="matrix(1,0,0,1,3185,865) translate(68.52351851851851 59.02777777777778)"/><use xlink:href="#j" transform="matrix(1,0,0,1,3185,865) translate(87.65932098765433 59.02777777777778)"/><path d="M3085.15 921.27l-1.66.44-1.8 1.8-.7 2.63V960h-2v-34.13l.92-3.42 2.53-2.53 2.7-.73m95.24 1.8h-62.66v-2h62.65" fill="#5e5e5e"/><path d="M3181.28 919.4l.28 1.6h-1.2v-2h1.1M3080 975.26l-4.64-14.26h9.28z" fill="#5e5e5e"/><path d="M3080 978.5l-6-18.5h12m-9.26 2l3.26 10.03 3.26-10.03" fill="#5e5e5e"/><use xlink:href="#n" transform="matrix(1,0,0,1,3085.14814118391,909.3333333333334) translate(0 14.222222222222223)"/><path d="M3029.18 985.3c1.56-2.93 5.5-5.3 8.82-5.3h106c8.84 0 16 26.86 16 60s-7.16 60-16 60h-106c-3.3 0-7.26-2.37-8.82-5.3l-26.36-49.4c-1.56-2.93-1.56-7.67 0-10.6z" stroke="#5e5e5e" stroke-width="3" fill="#a3d977"/><use xlink:href="#h" transform="matrix(1,0,0,1,3005,985) translate(47.82598765432098 59.02777777777778)"/><use xlink:href="#i" transform="matrix(1,0,0,1,3005,985) translate(71.28277777777777 59.02777777777778)"/><use xlink:href="#j" transform="matrix(1,0,0,1,3005,985) translate(93.0729012345679 59.02777777777778)"/><path d="M3440.08 922.45l.92 3.42v36.3h-2v-31.5h.34v-8.95m-99.73-.72v-2h60.34v2" fill="#5e5e5e"/><path d="M3339.64 921h-1.1l.18-.4-.28-1.6h1.2M3440 977.43l-4.64-14.26h9.28z" fill="#5e5e5e"/><path d="M3440 980.67l-6-18.5h12m-9.26 2l3.26 10.03 3.26-10.03" fill="#5e5e5e"/><use xlink:href="#p" transform="matrix(1,0,0,1,3399.9371428342174,909.3333333333334) translate(0 14.222222222222223)"/><path d="M3435.2 983.6c2.65-2 6.95-2 9.6 0l70.4 52.8c2.65 2 2.65 5.2 0 7.2l-70.4 52.8c-2.65 2-6.95 2-9.6 0l-70.4-52.8c-2.65-2-2.65-5.2 0-7.2z" stroke="#5e5e5e" stroke-width="3" fill="#eded8b"/><use xlink:href="#k" transform="matrix(1,0,0,1,3365,985) translate(51.239567901234565 59.02777777777778)"/><use xlink:href="#l" transform="matrix(1,0,0,1,3365,985) translate(68.52351851851851 59.02777777777778)"/><use xlink:href="#j" transform="matrix(1,0,0,1,3365,985) translate(87.65932098765433 59.02777777777778)"/><path d="M3261 1100h-2v-49.33h2m99.4-9.67h-72.66v-2h72.65" fill="#5e5e5e"/><path d="M3361.28 1039.4l.28 1.6h-1.2v-2h1.1M3260 1115.26l-4.64-14.26h9.28z" fill="#5e5e5e"/><path d="M3260 1118.5l-6-18.5h12m-9.26 2l3.26 10.03 3.26-10.03" fill="#5e5e5e"/><use xlink:href="#n" transform="matrix(1,0,0,1,3255.14814118391,1029.3333333333333) translate(0 14.222222222222223)"/><path d="M3209.18 1125.3c1.56-2.93 5.5-5.3 8.82-5.3h106c8.84 0 16 26.86 16 60s-7.16 60-16 60h-106c-3.3 0-7.26-2.37-8.82-5.3l-26.36-49.4c-1.56-2.93-1.56-7.67 0-10.6z" stroke="#5e5e5e" stroke-width="3" fill="#a3d977"/><use xlink:href="#h" transform="matrix(1,0,0,1,3185,1125) translate(46.992654320987654 59.02777777777778)"/><use xlink:href="#q" transform="matrix(1,0,0,1,3185,1125) translate(70.44944444444445 59.02777777777778)"/><use xlink:href="#m" transform="matrix(1,0,0,1,3185,1125) translate(93.90623456790124 59.02777777777778)"/><path d="M3621 1100h-2v-49.33h2m-101.4-9.67v-2h69.25v2" fill="#5e5e5e"/><path d="M3519.64 1041h-1.1l.18-.4-.28-1.6h1.2M3620 1115.26l-4.64-14.26h9.28z" fill="#5e5e5e"/><path d="M3620 1118.5l-6-18.5h12m-9.26 2l3.26 10.03 3.26-10.03" fill="#5e5e5e"/><use xlink:href="#p" transform="matrix(1,0,0,1,3588.85185881609,1029.3333333333333) translate(0 14.222222222222223)"/><path d="M3569.18 1125.3c1.56-2.93 5.5-5.3 8.82-5.3h106c8.84 0 16 26.86 16 60s-7.16 60-16 60h-106c-3.3 0-7.26-2.37-8.82-5.3l-26.36-49.4c-1.56-2.93-1.56-7.67 0-10.6z" stroke="#5e5e5e" stroke-width="3" fill="#a3d977"/><use xlink:href="#r" transform="matrix(1,0,0,1,3545,1125) translate(46.992654320987654 59.02777777777778)"/><use xlink:href="#s" transform="matrix(1,0,0,1,3545,1125) translate(70.44944444444445 59.02777777777778)"/><use xlink:href="#m" transform="matrix(1,0,0,1,3545,1125) translate(93.90623456790124 59.02777777777778)"/><path d="M3998.94 779.92l2.53 2.53.92 3.42v56.3h-2v-56.04l-.73-2.64-1.77-1.8-2.64-.7h-75.22v-2h75.48m-275.9 2v-2h161v2" fill="#5e5e5e"/><path d="M3719.64 781h-1.1l.18-.4-.28-1.6h1.2M4001.4 857.43l-4.65-14.26h9.27z" fill="#5e5e5e"/><path d="M4001.4 860.67l-6.02-18.5h12.02m-9.27 2l3.26 10.03 3.25-10.03" fill="#5e5e5e"/><use xlink:href="#p" transform="matrix(1,0,0,1,3880.631580314424,769.3333333333334) translate(0 14.222222222222223)"/><path d="M3996.6 863.6c2.64-2 6.94-2 9.6 0l70.4 52.8c2.64 2 2.64 5.2 0 7.2l-70.4 52.8c-2.66 2-6.96 2-9.6 0l-70.4-52.8c-2.66-2-2.66-5.2 0-7.2z" stroke="#5e5e5e" stroke-width="3" fill="#f9d2de"/><use xlink:href="#k" transform="matrix(1,0,0,1,3926.3888749604125,865) translate(51.239567901234565 59.02777777777778)"/><use xlink:href="#l" transform="matrix(1,0,0,1,3926.3888749604125,865) translate(68.52351851851851 59.02777777777778)"/><use xlink:href="#j" transform="matrix(1,0,0,1,3926.3888749604125,865) translate(87.65932098765433 59.02777777777778)"/><path d="M3825.84 921.08l-2.35.63-1.8 1.8-.7 2.63V960h-2v-34.13l.92-3.42 2.53-2.53 3.4-.9m95.93 1.98h-63.34v-2h63.34" fill="#5e5e5e"/><path d="M3922.67 919.4l.28 1.6h-1.2v-2h1.1M3820 975.26l-4.64-14.26h9.28z" fill="#5e5e5e"/><path d="M3820 978.5l-6-18.5h12m-9.26 2l3.26 10.03 3.26-10.03" fill="#5e5e5e"/><use xlink:href="#n" transform="matrix(1,0,0,1,3825.8425786641164,909.3333333333334) translate(0 14.222222222222223)"/><path d="M3769.18 985.3c1.56-2.93 5.5-5.3 8.82-5.3h106c8.84 0 16 26.86 16 60s-7.16 60-16 60h-106c-3.3 0-7.26-2.37-8.82-5.3l-26.36-49.4c-1.56-2.93-1.56-7.67 0-10.6z" stroke="#5e5e5e" stroke-width="3" fill="#a3d977"/><use xlink:href="#t" transform="matrix(1,0,0,1,3745,985) translate(47.82598765432098 59.02777777777778)"/><use xlink:href="#s" transform="matrix(1,0,0,1,3745,985) translate(69.61611111111111 59.02777777777778)"/><use xlink:href="#j" transform="matrix(1,0,0,1,3745,985) translate(93.0729012345679 59.02777777777778)"/><path d="M4217.55 919.92l2.53 2.53.92 3.42v36.3h-2v-36.04l-.7-2.64-1.8-1.8-2.63-.7h-13.83v-2h14.1M4081 921v-2h79.63v2" fill="#5e5e5e"/><path d="M4081.03 921h-1.1l.17-.4-.27-1.6h1.2M4220 977.43l-4.64-14.26h9.28z" fill="#5e5e5e"/><path d="M4220 980.67l-6-18.5h12m-9.26 2l3.26 10.03 3.26-10.03" fill="#5e5e5e"/><use xlink:href="#p" transform="matrix(1,0,0,1,4160.631580314424,909.3333333333334) translate(0 14.222222222222223)"/><path d="M4215.2 983.6c2.65-2 6.95-2 9.6 0l70.4 52.8c2.65 2 2.65 5.2 0 7.2l-70.4 52.8c-2.65 2-6.95 2-9.6 0l-70.4-52.8c-2.65-2-2.65-5.2 0-7.2z" stroke="#5e5e5e" stroke-width="3" fill="#99d2f2"/><use xlink:href="#o" transform="matrix(1,0,0,1,4145,985) translate(51.239567901234565 59.02777777777778)"/><use xlink:href="#l" transform="matrix(1,0,0,1,4145,985) translate(68.52351851851851 59.02777777777778)"/><use xlink:href="#j" transform="matrix(1,0,0,1,4145,985) translate(87.65932098765433 59.02777777777778)"/><path d="M4061 1100h-2v-49.33h2m79.4-9.67h-62.66v-2h62.65" fill="#5e5e5e"/><path d="M4141.28 1039.4l.28 1.6h-1.2v-2h1.1M4060 1115.26l-4.64-14.26h9.28z" fill="#5e5e5e"/><path d="M4060 1118.5l-6-18.5h12m-9.26 2l3.26 10.03 3.26-10.03" fill="#5e5e5e"/><use xlink:href="#n" transform="matrix(1,0,0,1,4045.1481411839104,1029.3333333333333) translate(0 14.222222222222223)"/><path d="M4009.18 1125.3c1.56-2.93 5.5-5.3 8.82-5.3h106c8.84 0 16 26.86 16 60s-7.16 60-16 60h-106c-3.3 0-7.26-2.37-8.82-5.3l-26.36-49.4c-1.56-2.93-1.56-7.67 0-10.6z" stroke="#5e5e5e" stroke-width="3" fill="#a3d977"/><use xlink:href="#t" transform="matrix(1,0,0,1,3985,1125) translate(47.82598765432098 59.02777777777778)"/><use xlink:href="#q" transform="matrix(1,0,0,1,3985,1125) translate(69.61611111111111 59.02777777777778)"/><use xlink:href="#u" transform="matrix(1,0,0,1,3985,1125) translate(93.0729012345679 59.02777777777778)"/><path d="M4361 1100h-2v-40.78h2m-61.4-18.22v-2h40.7v2" fill="#5e5e5e"/><path d="M4299.64 1041h-1.1l.18-.4-.28-1.6h1.2M4360 1115.26l-4.64-14.26h9.28z" fill="#5e5e5e"/><path d="M4360 1118.5l-6-18.5h12m-9.26 2l3.26 10.03 3.26-10.03" fill="#5e5e5e"/><use xlink:href="#p" transform="matrix(1,0,0,1,4340.2962962962965,1037.8888958531268) translate(0 14.222222222222223)"/><path d="M4309.18 1125.3c1.56-2.93 5.5-5.3 8.82-5.3h106c8.84 0 16 26.86 16 60s-7.16 60-16 60h-106c-3.3 0-7.26-2.37-8.82-5.3l-26.36-49.4c-1.56-2.93-1.56-7.67 0-10.6z" stroke="#5e5e5e" stroke-width="3" fill="#a3d977"/><use xlink:href="#r" transform="matrix(1,0,0,1,4285,1125) translate(47.82598765432098 59.02777777777778)"/><use xlink:href="#i" transform="matrix(1,0,0,1,4285,1125) translate(71.28277777777777 59.02777777777778)"/><use xlink:href="#u" transform="matrix(1,0,0,1,4285,1125) translate(93.0729012345679 59.02777777777778)"/><path d="M3620.45 1242.5v91.5c0 3.3-2.7 6-6 6H3500" stroke="#5e5e5e" stroke-width="2" fill="none"/><path d="M3621.45 1242.53h-2v-1.03h2" fill="#5e5e5e"/><path d="M3484.74 1340l14.26-4.64v9.28z" stroke="#5e5e5e" stroke-width="2" fill="#5e5e5e"/><path d="M3480 1340c0 22.1-17.9 40-40 40s-40-17.9-40-40 17.9-40 40-40 40 17.9 40 40z" stroke="#5e5e5e" stroke-width="3" fill="#eded8b"/><use xlink:href="#v" transform="matrix(1,0,0,1,3405,1305) translate(4.8456790123456805 39.65277777777778)"/><path d="M3260.45 1242.5v91.5c0 3.3 2.7 6 6 6H3380" stroke="#5e5e5e" stroke-width="2" fill="none"/><path d="M3261.45 1242.53h-2v-1.03h2" fill="#5e5e5e"/><path d="M3395.26 1340l-14.26 4.64v-9.28z" stroke="#5e5e5e" stroke-width="2" fill="#5e5e5e"/><path d="M3300 1480c0 22.1-17.9 40-40 40s-40-17.9-40-40 17.9-40 40-40 40 17.9 40 40z" stroke="#5e5e5e" stroke-width="3" fill="#3fbeda"/><use xlink:href="#v" transform="matrix(1,0,0,1,3225,1445) translate(4.8456790123456805 39.65277777777778)"/><path d="M3080.45 1102.5V1474c0 3.3 2.7 6 6 6H3200" stroke="#5e5e5e" stroke-width="2" fill="none"/><path d="M3081.45 1102.53h-2v-1.03h2" fill="#5e5e5e"/><path d="M3215.26 1480l-14.26 4.64v-9.28z" stroke="#5e5e5e" stroke-width="2" fill="#5e5e5e"/><path d="M3440 1382.5v91.5c0 3.3-2.7 6-6 6h-114" stroke="#5e5e5e" stroke-width="2" fill="none"/><path d="M3439.98 1381.5l1.02-.03v1.06h-2v-1.1" fill="#5e5e5e"/><path d="M3304.74 1480l14.26-4.64v9.28z" stroke="#5e5e5e" stroke-width="2" fill="#5e5e5e"/><path d="M4260 1360c0 22.1-17.9 40-40 40s-40-17.9-40-40 17.9-40 40-40 40 17.9 40 40z" stroke="#5e5e5e" stroke-width="3" fill="#99d2f2"/><use xlink:href="#v" transform="matrix(1,0,0,1,4185,1325) translate(4.8456790123456805 39.65277777777778)"/><path d="M4360.45 1242.5V1354c0 3.3-2.7 6-6 6H4280" stroke="#5e5e5e" stroke-width="2" fill="none"/><path d="M4361.45 1242.53h-2v-1.03h2" fill="#5e5e5e"/><path d="M4264.74 1360l14.26-4.64v9.28z" stroke="#5e5e5e" stroke-width="2" fill="#5e5e5e"/><path d="M4060.45 1242.5V1354c0 3.3 2.7 6 6 6H4160" stroke="#5e5e5e" stroke-width="2" fill="none"/><path d="M4061.45 1242.53h-2v-1.03h2" fill="#5e5e5e"/><path d="M4175.26 1360l-14.26 4.64v-9.28z" stroke="#5e5e5e" stroke-width="2" fill="#5e5e5e"/><path d="M4041.4 1480c0 22.1-17.92 40-40 40-22.1 0-40-17.9-40-40s17.9-40 40-40c22.08 0 40 17.9 40 40z" stroke="#5e5e5e" stroke-width="3" fill="#f9d2de"/><use xlink:href="#v" transform="matrix(1,0,0,1,3966.3888749604125,1445) translate(4.8456790123456805 39.65277777777778)"/><path d="M4220 1402.5v71.5c0 3.3-2.7 6-6 6h-152.6" stroke="#5e5e5e" stroke-width="2" fill="none"/><path d="M4219.98 1401.5l1.02-.03v1.06h-2v-1.1" fill="#5e5e5e"/><path d="M4046.13 1480l14.26-4.64v9.28z" stroke="#5e5e5e" stroke-width="2" fill="#5e5e5e"/><path d="M3820.45 1102.5V1474c0 3.3 2.7 6 6 6h114.94" stroke="#5e5e5e" stroke-width="2" fill="none"/><path d="M3821.45 1102.53h-2v-1.03h2" fill="#5e5e5e"/><path d="M3956.65 1480l-14.26 4.64v-9.28z" stroke="#5e5e5e" stroke-width="2" fill="#5e5e5e"/><path d="M3680 1540c0 22.1-17.9 40-40 40s-40-17.9-40-40 17.9-40 40-40 40 17.9 40 40z" stroke="#5e5e5e" stroke-width="3" fill="#cb8bf6"/><use xlink:href="#v" transform="matrix(1,0,0,1,3605,1505) translate(4.8456790123456805 39.65277777777778)"/><path d="M3260 1522.5v11.5c0 3.3 2.7 6 6 6h314" stroke="#5e5e5e" stroke-width="2" fill="none"/><path d="M3259.98 1521.5l1.02-.03v1.06h-2v-1.1" fill="#5e5e5e"/><path d="M3595.26 1540l-14.26 4.64v-9.28z" stroke="#5e5e5e" stroke-width="2" fill="#5e5e5e"/><path d="M4001.4 1522.5v11.5c0 3.3-2.7 6-6 6H3700" stroke="#5e5e5e" stroke-width="2" fill="none"/><path d="M4001.37 1521.5l1.02-.03v1.06h-2v-1.1" fill="#5e5e5e"/><path d="M3684.74 1540l14.26-4.64v9.28z" stroke="#5e5e5e" stroke-width="2" fill="#5e5e5e"/><path d="M3095.2 583.6c2.65-2 6.95-2 9.6 0l70.4 52.8c2.65 2 2.65 5.2 0 7.2l-70.4 52.8c-2.65 2-6.95 2-9.6 0l-70.4-52.8c-2.65-2-2.65-5.2 0-7.2z" stroke="#5e5e5e" stroke-width="3" fill="#0c7cba"/><use xlink:href="#k" transform="matrix(1,0,0,1,3025,585) translate(33.02969135802469 59.02777777777778)"/><use xlink:href="#w" transform="matrix(1,0,0,1,3025,585) translate(50.31364197530864 59.02777777777778)"/><use xlink:href="#x" transform="matrix(1,0,0,1,3025,585) translate(69.44944444444445 59.02777777777778)"/><use xlink:href="#w" transform="matrix(1,0,0,1,3025,585) translate(86.7333950617284 59.02777777777778)"/><use xlink:href="#j" transform="matrix(1,0,0,1,3025,585) translate(105.8691975308642 59.02777777777778)"/><path d="M2925.15 641h-19.02l-2.64.7-1.8 1.8-.7 2.63V660h-2v-14.13l.92-3.42 2.53-2.53 3.42-.92h19.28m95.24 2h-62.66v-2h62.65" fill="#5e5e5e"/><path d="M3021.28 639.4l.28 1.6h-1.2v-2h1.1M2900 675.26l-4.64-14.26h9.28z" fill="#5e5e5e"/><path d="M2900 678.5l-6-18.5h12m-9.26 2l3.26 10.03 3.26-10.03" fill="#5e5e5e"/><g><use xlink:href="#n" transform="matrix(1,0,0,1,2925.14814118391,629.3333333333334) translate(0 14.222222222222223)"/></g><path d="M2849.18 685.3c1.56-2.93 5.5-5.3 8.82-5.3h106c8.84 0 16 26.86 16 60s-7.16 60-16 60h-106c-3.3 0-7.26-2.37-8.82-5.3l-26.36-49.4c-1.56-2.93-1.56-7.67 0-10.6z" stroke="#5e5e5e" stroke-width="3" fill="#a3d977"/><g><use xlink:href="#y" transform="matrix(1,0,0,1,2825,685) translate(19.5729012345679 45.27777777777778)"/><use xlink:href="#f" transform="matrix(1,0,0,1,2825,685) translate(54.1408024691358 45.27777777777778)"/><use xlink:href="#z" transform="matrix(1,0,0,1,2825,685) translate(29.56672839506173 71.94444444444446)"/><use xlink:href="#A" transform="matrix(1,0,0,1,2825,685) translate(71.54203703703703 71.94444444444446)"/></g><path d="M3637.55 639.92l2.53 2.53.92 3.42v56.3h-2v-56.04l-.7-2.64-1.8-1.8-2.63-.7h-164.53v-2h164.8m-454.53 2v-2h250.34v2" fill="#5e5e5e"/><path d="M3179.64 641h-1.1l.18-.4-.28-1.6h1.2M3640 717.43l-4.64-14.26h9.28z" fill="#5e5e5e"/><path d="M3640 720.67l-6-18.5h12m-9.26 2l3.26 10.03 3.26-10.03" fill="#5e5e5e"/><g><use xlink:href="#p" transform="matrix(1,0,0,1,3429.9371428342174,629.3333333333334) translate(0 14.222222222222223)"/></g><path d="M3139.55 1620c0 22.1-17.9 40-40 40s-40-17.9-40-40 17.9-40 40-40 40 17.9 40 40z" stroke="#5e5e5e" stroke-width="3" fill="#0c7cba"/><g><use xlink:href="#v" transform="matrix(1,0,0,1,3064.5503084286092,1585) translate(4.8456790123456805 39.65277777777778)"/></g><path d="M2901.45 1613.87l.7 2.64 1.8 1.8 2.63.7h132.97v2h-133.23l-3.42-.92-2.53-2.53-.92-3.42V802.5h2" fill="#5e5e5e"/><path d="M2901.45 802.53h-2v-1.03h2M3054.8 1620l-14.25 4.64v-9.28z" fill="#5e5e5e"/><path d="M3058.05 1620l-18.5 6v-12m2 9.26l10.03-3.26-10.03-3.26" fill="#5e5e5e"/><path d="M3640 1582.5v31.5c0 3.3-2.7 6-6 6h-474.45" stroke="#5e5e5e" stroke-width="2" fill="none"/><path d="M3639.98 1581.5l1.02-.03v1.06h-2v-1.1" fill="#5e5e5e"/><path d="M3144.3 1620l14.25-4.64v9.28z" stroke="#5e5e5e" stroke-width="2" fill="#5e5e5e"/><path d="M3100 502.5v59.67" stroke="#5e5e5e" stroke-width="2" fill="none"/><path d="M3101 502.53h-2v-1.03h2" fill="#5e5e5e"/><path d="M3100 577.43l-4.64-14.26h9.28z" stroke="#5e5e5e" stroke-width="2" fill="#5e5e5e"/><path d="M3147.55 1698.5c17.67 0 32 17.9 32 40s-14.33 40-32 40h-96c-17.67 0-32-17.9-32-40s14.33-40 32-40z" stroke="#5e5e5e" stroke-width="3" fill="#fff"/><g><use xlink:href="#B" transform="matrix(1,0,0,1,3024.5503084286092,1703.5) translate(56.574074074074076 39.65277777777778)"/></g><path d="M3099.55 1662.5v16" stroke="#5e5e5e" stroke-width="2" fill="none"/><path d="M3099.53 1661.5l1.02-.03v1.06h-2v-1.1" fill="#5e5e5e"/><path d="M3099.55 1693.76l-4.63-14.26h9.27z" stroke="#5e5e5e" stroke-width="2" fill="#5e5e5e"/><defs><path fill="#333" d="M33 0v-248h34V0H33" id="C"/><path fill="#333" d="M117-194c89-4 53 116 60 194h-32v-121c0-31-8-49-39-48C34-167 62-67 57 0H25l-1-190h30c1 10-1 24 2 32 11-22 29-35 61-36" id="D"/><path fill="#333" d="M34 0v-190h32V0H34zM24-211c8-23 27-35 38-54h36v5l-58 49H24" id="E"/><path fill="#333" d="M96-169c-40 0-48 33-48 73s9 75 48 75c24 0 41-14 43-38l32 2c-6 37-31 61-74 61-59 0-76-41-82-99-10-93 101-131 147-64 4 7 5 14 7 22l-32 3c-4-21-16-35-41-35" id="F"/><path fill="#333" d="M24-231v-30h32v30H24zM24 0v-190h32V0H24" id="G"/><path fill="#333" d="M100-194c62-1 85 37 85 99 1 63-27 99-86 99S16-35 15-95c0-66 28-99 85-99zM99-20c44 1 53-31 53-75 0-43-8-75-51-75s-53 32-53 75 10 74 51 75" id="H"/><g id="a"><use transform="matrix(0.06172839506172839,0,0,0.06172839506172839,0,0)" xlink:href="#C"/><use transform="matrix(0.06172839506172839,0,0,0.06172839506172839,6.172839506172839,0)" xlink:href="#D"/><use transform="matrix(0.06172839506172839,0,0,0.06172839506172839,18.51851851851852,0)" xlink:href="#E"/><use transform="matrix(0.06172839506172839,0,0,0.06172839506172839,24.691358024691358,0)" xlink:href="#F"/><use transform="matrix(0.06172839506172839,0,0,0.06172839506172839,35.80246913580247,0)" xlink:href="#G"/><use transform="matrix(0.06172839506172839,0,0,0.06172839506172839,40.67901234567901,0)" xlink:href="#H"/></g><path fill="#333" d="M126-127c33 6 58 20 58 59 0 88-139 92-164 29-3-8-5-16-6-25l32-3c6 27 21 44 54 44 32 0 52-15 52-46 0-38-36-46-79-43v-28c39 1 72-4 72-42 0-27-17-43-46-43-28 0-47 15-49 41l-32-3c6-42 35-63 81-64 48-1 79 21 79 65 0 36-21 52-52 59" id="I"/><path fill="#333" d="M33-261c38 41 65 92 65 168S71 34 33 75H2C39 34 66-17 66-93S39-220 2-261h31" id="J"/><g id="b"><use transform="matrix(0.06172839506172839,0,0,0.06172839506172839,0,0)" xlink:href="#I"/><use transform="matrix(0.06172839506172839,0,0,0.06172839506172839,12.345679012345679,0)" xlink:href="#J"/></g><path fill="#333" d="M160-131c35 5 61 23 61 61C221 17 115-2 30 0v-248c76 3 177-17 177 60 0 33-19 50-47 57zm-97-11c50-1 110 9 110-42 0-47-63-36-110-37v79zm0 115c55-2 124 14 124-45 0-56-70-42-124-44v89" id="K"/><use transform="matrix(0.06172839506172839,0,0,0.06172839506172839,0,0)" xlink:href="#K" id="c"/><path fill="#333" d="M30-248c118-7 216 8 213 122C240-48 200 0 122 0H30v-248zM63-27c89 8 146-16 146-99s-60-101-146-95v194" id="L"/><path fill="#333" d="M177-190C167-65 218 103 67 71c-23-6-38-20-44-43l32-5c15 47 100 32 89-28v-30C133-14 115 1 83 1 29 1 15-40 15-95c0-56 16-97 71-98 29-1 48 16 59 35 1-10 0-23 2-32h30zM94-22c36 0 50-32 50-73 0-42-14-75-50-75-39 0-46 34-46 75s6 73 46 73" id="M"/><path fill="#333" d="M59-47c-2 24 18 29 38 22v24C64 9 27 4 27-40v-127H5v-23h24l9-43h21v43h35v23H59v120" id="N"/><path fill="#333" d="M100-194c63 0 86 42 84 106H49c0 40 14 67 53 68 26 1 43-12 49-29l28 8c-11 28-37 45-77 45C44 4 14-33 15-96c1-61 26-98 85-98zm52 81c6-60-76-77-97-28-3 7-6 17-6 28h103" id="O"/><g id="d"><use transform="matrix(0.06172839506172839,0,0,0.06172839506172839,0,0)" xlink:href="#L"/><use transform="matrix(0.06172839506172839,0,0,0.06172839506172839,15.987654320987653,0)" xlink:href="#G"/><use transform="matrix(0.06172839506172839,0,0,0.06172839506172839,20.864197530864196,0)" xlink:href="#M"/><use transform="matrix(0.06172839506172839,0,0,0.06172839506172839,33.20987654320987,0)" xlink:href="#G"/><use transform="matrix(0.06172839506172839,0,0,0.06172839506172839,38.08641975308642,0)" xlink:href="#N"/><use transform="matrix(0.06172839506172839,0,0,0.06172839506172839,44.25925925925926,0)" xlink:href="#O"/></g><path fill="#333" d="M114-163C36-179 61-72 57 0H25l-1-190h30c1 12-1 29 2 39 6-27 23-49 58-41v29" id="P"/><path fill="#333" d="M100-194c63 0 86 42 84 106H49c0 40 14 67 53 68 26 1 43-12 49-29l28 8c-11 28-37 45-77 45C44 4 14-33 15-96c1-61 26-98 85-98zm52 81c6-60-76-77-97-28-3 7-6 17-6 28h103zm-32-149c12 18 30 30 39 51-31 2-38-20-57-30-20 10-27 32-59 30 9-22 29-33 41-51h36" id="Q"/><path fill="#333" d="M135-143c-3-34-86-38-87 0 15 53 115 12 119 90S17 21 10-45l28-5c4 36 97 45 98 0-10-56-113-15-118-90-4-57 82-63 122-42 12 7 21 19 24 35" id="R"/><g id="e"><use transform="matrix(0.06172839506172839,0,0,0.06172839506172839,0,0)" xlink:href="#N"/><use transform="matrix(0.06172839506172839,0,0,0.06172839506172839,6.172839506172839,0)" xlink:href="#P"/><use transform="matrix(0.06172839506172839,0,0,0.06172839506172839,13.518518518518519,0)" xlink:href="#Q"/><use transform="matrix(0.06172839506172839,0,0,0.06172839506172839,25.864197530864196,0)" xlink:href="#R"/></g><path fill="#333" d="M85 4C-4 8 31-112 24-190h32v120c0 31 7 50 39 49 72-2 45-101 50-169h31l1 190h-30c-1-10 1-25-2-33-11 22-28 36-60 37zM73-211c8-23 27-35 38-54h36v5l-58 49H73" id="S"/><path fill="#333" d="M210-169c-67 3-38 105-44 169h-31v-121c0-29-5-50-35-48C34-165 62-65 56 0H25l-1-190h30c1 10-1 24 2 32 10-44 99-50 107 0 11-21 27-35 58-36 85-2 47 119 55 194h-31v-121c0-29-5-49-35-48" id="T"/><g id="f"><use transform="matrix(0.06172839506172839,0,0,0.06172839506172839,0,0)" xlink:href="#D"/><use transform="matrix(0.06172839506172839,0,0,0.06172839506172839,12.345679012345679,0)" xlink:href="#S"/><use transform="matrix(0.06172839506172839,0,0,0.06172839506172839,24.691358024691358,0)" xlink:href="#T"/><use transform="matrix(0.06172839506172839,0,0,0.06172839506172839,43.148148148148145,0)" xlink:href="#O"/><use transform="matrix(0.06172839506172839,0,0,0.06172839506172839,55.49382716049382,0)" xlink:href="#P"/><use transform="matrix(0.06172839506172839,0,0,0.06172839506172839,62.8395061728395,0)" xlink:href="#H"/><use transform="matrix(0.06172839506172839,0,0,0.06172839506172839,75.18518518518518,0)" xlink:href="#R"/></g><g id="g"><use transform="matrix(0.06172839506172839,0,0,0.06172839506172839,0,0)" xlink:href="#G"/><use transform="matrix(0.06172839506172839,0,0,0.06172839506172839,4.876543209876543,0)" xlink:href="#D"/><use transform="matrix(0.06172839506172839,0,0,0.06172839506172839,17.22222222222222,0)" xlink:href="#N"/><use transform="matrix(0.06172839506172839,0,0,0.06172839506172839,23.39506172839506,0)" xlink:href="#O"/><use transform="matrix(0.06172839506172839,0,0,0.06172839506172839,35.74074074074074,0)" xlink:href="#G"/><use transform="matrix(0.06172839506172839,0,0,0.06172839506172839,40.617283950617285,0)" xlink:href="#P"/><use transform="matrix(0.06172839506172839,0,0,0.06172839506172839,47.96296296296296,0)" xlink:href="#H"/><use transform="matrix(0.06172839506172839,0,0,0.06172839506172839,60.30864197530864,0)" xlink:href="#R"/></g><path fill="#333" d="M141 0L90-78 38 0H4l68-98-65-92h35l48 74 47-74h35l-64 92 68 98h-35" id="U"/><path fill="#333" d="M68-38c1 34 0 65-14 84H32c9-13 17-26 17-46H33v-38h35" id="V"/><g id="h"><use transform="matrix(0.06172839506172839,0,0,0.06172839506172839,0,0)" xlink:href="#U"/><use transform="matrix(0.06172839506172839,0,0,0.06172839506172839,11.11111111111111,0)" xlink:href="#V"/></g><path fill="#333" d="M179-190L93 31C79 59 56 82 12 73V49c39 6 53-20 64-50L1-190h34L92-34l54-156h33" id="W"/><g id="i"><use transform="matrix(0.06172839506172839,0,0,0.06172839506172839,0,0)" xlink:href="#W"/><use transform="matrix(0.06172839506172839,0,0,0.06172839506172839,9.444444444444445,0)" xlink:href="#V"/></g><path fill="#333" d="M9 0v-24l116-142H16v-24h144v24L44-24h123V0H9" id="X"/><use transform="matrix(0.06172839506172839,0,0,0.06172839506172839,0,0)" xlink:href="#X" id="j"/><use transform="matrix(0.06172839506172839,0,0,0.06172839506172839,0,0)" xlink:href="#U" id="k"/><path fill="#333" d="M18-27v-27l151-64-151-65v-27l175 74v36" id="Y"/><use transform="matrix(0.06172839506172839,0,0,0.06172839506172839,0,0)" xlink:href="#Y" id="l"/><use transform="matrix(0.06172839506172839,0,0,0.06172839506172839,0,0)" xlink:href="#W" id="m"/><path fill="#333" d="M169-182c-1-43-94-46-97-3 18 66 151 10 154 114 3 95-165 93-204 36-6-8-10-19-12-30l50-8c3 46 112 56 116 5-17-69-150-10-154-114-4-87 153-88 188-35 5 8 8 18 10 28" id="Z"/><path fill="#333" d="M25-224v-37h50v37H25zM25 0v-190h50V0H25" id="aa"/><path fill="#333" d="M220-157c-53 9-28 100-34 157h-49v-107c1-27-5-49-29-50C55-147 81-57 75 0H25l-1-190h47c2 12-1 28 3 38 10-53 101-56 108 0 13-22 24-43 59-42 82 1 51 116 57 194h-49v-107c-1-25-5-48-29-50" id="ab"/><g id="n"><use transform="matrix(0.04938271604938272,0,0,0.04938271604938272,0,0)" xlink:href="#Z"/><use transform="matrix(0.04938271604938272,0,0,0.04938271604938272,11.851851851851853,0)" xlink:href="#aa"/><use transform="matrix(0.04938271604938272,0,0,0.04938271604938272,16.790123456790127,0)" xlink:href="#ab"/></g><use transform="matrix(0.06172839506172839,0,0,0.06172839506172839,0,0)" xlink:href="#W" id="o"/><path fill="#333" d="M175 0L67-191c6 58 2 128 3 191H24v-248h59L193-55c-6-58-2-129-3-193h46V0h-61" id="ac"/><path fill="#333" d="M101-320c28 0 65 44 74 0h23c0 29-10 51-39 51-28-1-66-45-74 0H61c2-28 9-52 40-51zM199 0l-22-63H83L61 0H9l90-248h61L250 0h-51zm-33-102l-36-108c-10 38-24 72-36 108h72" id="ad"/><path fill="#333" d="M140-251c80 0 125 45 125 126S219 4 139 4C58 4 15-44 15-125s44-126 125-126zm-1 214c52 0 73-35 73-88 0-50-21-86-72-86-52 0-73 35-73 86s22 88 72 88" id="ae"/><g id="p"><use transform="matrix(0.04938271604938272,0,0,0.04938271604938272,0,0)" xlink:href="#ac"/><use transform="matrix(0.04938271604938272,0,0,0.04938271604938272,12.790123456790125,0)" xlink:href="#ad"/><use transform="matrix(0.04938271604938272,0,0,0.04938271604938272,25.58024691358025,0)" xlink:href="#ae"/></g><g id="q"><use transform="matrix(0.06172839506172839,0,0,0.06172839506172839,0,0)" xlink:href="#X"/><use transform="matrix(0.06172839506172839,0,0,0.06172839506172839,11.11111111111111,0)" xlink:href="#V"/></g><g id="r"><use transform="matrix(0.06172839506172839,0,0,0.06172839506172839,0,0)" xlink:href="#X"/><use transform="matrix(0.06172839506172839,0,0,0.06172839506172839,11.11111111111111,0)" xlink:href="#V"/></g><g id="s"><use transform="matrix(0.06172839506172839,0,0,0.06172839506172839,0,0)" xlink:href="#U"/><use transform="matrix(0.06172839506172839,0,0,0.06172839506172839,11.11111111111111,0)" xlink:href="#V"/></g><g id="t"><use transform="matrix(0.06172839506172839,0,0,0.06172839506172839,0,0)" xlink:href="#W"/><use transform="matrix(0.06172839506172839,0,0,0.06172839506172839,9.444444444444445,0)" xlink:href="#V"/></g><use transform="matrix(0.06172839506172839,0,0,0.06172839506172839,0,0)" xlink:href="#U" id="u"/><path fill="#333" d="M101-234c-31-9-42 10-38 44h38v23H63V0H32v-167H5v-23h27c-7-52 17-82 69-68v24" id="af"/><path fill="#333" d="M16-82v-28h88v28H16" id="ag"/><g id="v"><use transform="matrix(0.06172839506172839,0,0,0.06172839506172839,0,0)" xlink:href="#af"/><use transform="matrix(0.06172839506172839,0,0,0.06172839506172839,6.172839506172839,0)" xlink:href="#G"/><use transform="matrix(0.06172839506172839,0,0,0.06172839506172839,11.049382716049383,0)" xlink:href="#T"/><use transform="matrix(0.06172839506172839,0,0,0.06172839506172839,29.50617283950617,0)" xlink:href="#ag"/><use transform="matrix(0.06172839506172839,0,0,0.06172839506172839,36.85185185185185,0)" xlink:href="#R"/><use transform="matrix(0.06172839506172839,0,0,0.06172839506172839,47.96296296296296,0)" xlink:href="#O"/></g><path fill="#333" d="M18-150v-26h174v26H18zm0 90v-26h174v26H18" id="ah"/><use transform="matrix(0.06172839506172839,0,0,0.06172839506172839,0,0)" xlink:href="#ah" id="w"/><use transform="matrix(0.06172839506172839,0,0,0.06172839506172839,0,0)" xlink:href="#W" id="x"/><path fill="#333" d="M140-251c81 0 123 46 123 126C263-46 219 4 140 4 59 4 17-45 17-125s42-126 123-126zm0 227c63 0 89-41 89-101s-29-99-89-99c-61 0-89 39-89 99S79-25 140-24" id="ai"/><g id="y"><use transform="matrix(0.06172839506172839,0,0,0.06172839506172839,0,0)" xlink:href="#ai"/><use transform="matrix(0.06172839506172839,0,0,0.06172839506172839,17.28395061728395,0)" xlink:href="#R"/></g><path fill="#333" d="M141-36C126-15 110 5 73 4 37 3 15-17 15-53c-1-64 63-63 125-63 3-35-9-54-41-54-24 1-41 7-42 31l-33-3c5-37 33-52 76-52 45 0 72 20 72 64v82c-1 20 7 32 28 27v20c-31 9-61-2-59-35zM48-53c0 20 12 33 32 33 41-3 63-29 60-74-43 2-92-5-92 41zm117-205c-3 23-9 48-36 47-26-1-65-44-74 0H39c4-23 8-48 36-47s64 44 74 0h16" id="aj"/><g id="z"><use transform="matrix(0.06172839506172839,0,0,0.06172839506172839,0,0)" xlink:href="#R"/><use transform="matrix(0.06172839506172839,0,0,0.06172839506172839,11.11111111111111,0)" xlink:href="#aj"/><use transform="matrix(0.06172839506172839,0,0,0.06172839506172839,23.45679012345679,0)" xlink:href="#H"/></g><path fill="#333" d="M84 4C-5 8 30-112 23-190h32v120c0 31 7 50 39 49 72-2 45-101 50-169h31l1 190h-30c-1-10 1-25-2-33-11 22-28 36-60 37" id="ak"/><path fill="#333" d="M141-36C126-15 110 5 73 4 37 3 15-17 15-53c-1-64 63-63 125-63 3-35-9-54-41-54-24 1-41 7-42 31l-33-3c5-37 33-52 76-52 45 0 72 20 72 64v82c-1 20 7 32 28 27v20c-31 9-61-2-59-35zM48-53c0 20 12 33 32 33 41-3 63-29 60-74-43 2-92-5-92 41" id="al"/><g id="A"><use transform="matrix(0.06172839506172839,0,0,0.06172839506172839,0,0)" xlink:href="#G"/><use transform="matrix(0.06172839506172839,0,0,0.06172839506172839,4.876543209876543,0)" xlink:href="#M"/><use transform="matrix(0.06172839506172839,0,0,0.06172839506172839,17.22222222222222,0)" xlink:href="#ak"/><use transform="matrix(0.06172839506172839,0,0,0.06172839506172839,29.5679012345679,0)" xlink:href="#al"/><use transform="matrix(0.06172839506172839,0,0,0.06172839506172839,41.913580246913575,0)" xlink:href="#G"/><use transform="matrix(0.06172839506172839,0,0,0.06172839506172839,46.79012345679012,0)" xlink:href="#R"/></g><path fill="#333" d="M63-220v92h138v28H63V0H30v-248h175v28H63" id="am"/><g id="B"><use transform="matrix(0.06172839506172839,0,0,0.06172839506172839,0,0)" xlink:href="#am"/><use transform="matrix(0.06172839506172839,0,0,0.06172839506172839,13.518518518518517,0)" xlink:href="#G"/><use transform="matrix(0.06172839506172839,0,0,0.06172839506172839,18.39506172839506,0)" xlink:href="#T"/></g></defs></g></svg>