<?xml version="1.0" encoding="utf-8"?>
<!-- Generator: Adobe Illustrator 24.0.2, SVG Export Plug-In . SVG Version: 6.00 Build 0)  -->
<svg version="1.0" id="Camada_1" xmlns="http://www.w3.org/2000/svg" xmlns:xlink="http://www.w3.org/1999/xlink" x="0px" y="0px"
	 viewBox="0 0 1661.15 411.72" enable-background="new 0 0 1661.15 411.72" xml:space="preserve">
<path fill="#FFFFFF" d="M124.42,113.25L58.58,47.41c0.64-1.81,0.99-3.75,0.99-5.78c0-9.55-7.74-17.3-17.3-17.3
	c-9.55,0-17.3,7.74-17.3,17.3s7.74,17.3,17.3,17.3c3.74,0,7.19-1.19,10.02-3.2L124.42,113.25z"/>
<path fill="#FFFFFF" d="M138.2,106.24l-11.41-60.97c1.03-0.75,1.96-1.69,2.72-2.8c3.6-5.25,2.25-12.42-3-16.02
	c-5.25-3.6-12.42-2.25-16.02,3c-3.6,5.25-2.25,12.42,3,16.02c2.05,1.41,4.4,2.05,6.71,2.01L138.2,106.24z"/>
<path fill="#FFFFFF" d="M157.88,110.77l53.23-76.4c1.89,0.31,3.87,0.32,5.86-0.04c9.4-1.68,15.67-10.67,13.98-20.07
	c-1.68-9.4-10.67-15.67-20.07-13.98c-9.4,1.68-15.67,10.67-13.98,20.07c0.66,3.68,2.44,6.87,4.92,9.3L157.88,110.77z"/>
<path fill="#FFFFFF" d="M163,148.37l62.93,49.08c-0.35,1.6-0.45,3.29-0.24,5.02c1,8.13,8.41,13.9,16.53,12.89
	c8.13-1,13.9-8.41,12.89-16.53c-1-8.13-8.41-13.9-16.53-12.89c-3.18,0.39-5.99,1.77-8.19,3.78L163,148.37z"/>
<path fill="#FFFFFF" d="M155.1,156.42l44.09,88.48c-1.24,1.62-2.24,3.48-2.92,5.53c-3.18,9.69,2,20.1,11.59,23.25
	c9.58,3.15,19.93-2.16,23.11-11.86c3.18-9.69-2-20.1-11.59-23.25c-3.75-1.23-7.61-1.16-11.12-0.05L155.1,156.42z"/>
<path fill="#FFFFFF" d="M130.02,154.89l-29.77,55.97c-1.3-0.06-2.64,0.1-3.96,0.5c-6.22,1.9-9.72,8.48-7.82,14.7
	c1.9,6.22,8.48,9.72,14.7,7.82c6.22-1.9,9.72-8.48,7.82-14.7c-0.74-2.43-2.2-4.45-4.08-5.89L130.02,154.89z"/>
<path fill="#FFFFFF" d="M119.4,143.98l-74.54,39.85c-1.4-1.03-3-1.85-4.76-2.38c-8.3-2.52-17.07,2.17-19.58,10.47
	c-2.52,8.3,2.17,17.07,10.47,19.58c8.3,2.52,17.07-2.17,19.58-10.47c0.98-3.25,0.86-6.56-0.14-9.55L119.4,143.98z"/>
<path fill="#FFFFFF" d="M116.6,129.66l-85.73-6.42c-0.64-1.65-1.56-3.22-2.79-4.64c-5.75-6.69-15.84-7.44-22.53-1.69
	c-6.69,5.75-7.44,15.84-1.69,22.53c5.75,6.69,15.84,7.44,22.53,1.69c2.62-2.25,4.32-5.16,5.08-8.28L116.6,129.66z"/>
<circle fill="#FFFFFF" cx="142.63" cy="132" r="14.4"/>
<path fill="#FFFFFF" d="M263.45,142.05c-4.82,0-8.97,2.82-10.93,6.89L168,138.27l83.49,17.86c0.94,5.77,5.93,10.17,11.96,10.17
	c6.7,0,12.13-5.43,12.13-12.13C275.58,147.48,270.15,142.05,263.45,142.05z"/>
<path fill="#FFFFFF" d="M233.77,92.79c-7.14,0-12.92,5.79-12.92,12.92c0,0.85,0.09,1.67,0.24,2.48L168.2,126.6l55.65-12.6
	c2.37,2.84,5.93,4.64,9.92,4.64c7.14,0,12.92-5.79,12.92-12.92C246.7,98.58,240.91,92.79,233.77,92.79z"/>
<rect x="138.2" y="156.42" fill="#FFFFFF" width="8.29" height="196.33"/>
<circle fill="#FFFFFF" cx="142.34" cy="387.16" r="24.57"/>
<g>
	<path fill="#FFFFFF" d="M429,161.8v33.72h-16.05v-86.3h26.32c5.89,0,10.93,0.61,15.13,1.82c4.2,1.21,7.64,2.92,10.32,5.1
		c2.69,2.19,4.66,4.8,5.91,7.85c1.25,3.04,1.88,6.4,1.88,10.06c0,2.9-0.43,5.65-1.28,8.24c-0.86,2.59-2.09,4.93-3.7,7.04
		c-1.61,2.11-3.6,3.96-5.97,5.55c-2.37,1.59-5.06,2.86-8.09,3.82c2.03,1.15,3.78,2.8,5.25,4.95l21.6,31.87h-14.44
		c-1.39,0-2.58-0.28-3.55-0.84c-0.98-0.56-1.8-1.35-2.48-2.39l-18.14-27.63c-0.68-1.03-1.42-1.77-2.24-2.21
		c-0.82-0.44-2.02-0.66-3.61-0.66H429z M429,150.28h10.03c3.02,0,5.66-0.38,7.91-1.13c2.25-0.76,4.1-1.8,5.55-3.13
		c1.45-1.33,2.54-2.91,3.25-4.74c0.72-1.83,1.07-3.84,1.07-6.03c0-4.38-1.44-7.74-4.33-10.09c-2.89-2.35-7.29-3.52-13.22-3.52H429
		V150.28z"/>
	<path fill="#FFFFFF" d="M515.06,133.33c3.86,0,7.41,0.62,10.65,1.85c3.24,1.23,6.04,3.03,8.39,5.4c2.35,2.37,4.18,5.27,5.49,8.71
		c1.31,3.44,1.97,7.37,1.97,11.79c0,1.11-0.05,2.04-0.15,2.78c-0.1,0.74-0.28,1.31-0.54,1.73c-0.26,0.42-0.61,0.72-1.04,0.9
		c-0.44,0.18-0.99,0.27-1.67,0.27h-37.84c0.44,6.29,2.13,10.9,5.07,13.85c2.94,2.94,6.84,4.42,11.7,4.42c2.39,0,4.45-0.28,6.18-0.84
		c1.73-0.56,3.24-1.17,4.54-1.85c1.29-0.68,2.43-1.29,3.4-1.85c0.97-0.56,1.92-0.84,2.84-0.84c0.6,0,1.11,0.12,1.55,0.36
		c0.44,0.24,0.81,0.58,1.13,1.01l4.3,5.37c-1.63,1.91-3.46,3.51-5.49,4.8c-2.03,1.29-4.15,2.33-6.36,3.1
		c-2.21,0.78-4.46,1.32-6.74,1.64c-2.29,0.32-4.51,0.48-6.65,0.48c-4.26,0-8.22-0.71-11.88-2.12c-3.66-1.41-6.84-3.5-9.55-6.27
		c-2.71-2.77-4.83-6.19-6.39-10.27c-1.55-4.08-2.33-8.8-2.33-14.17c0-4.18,0.68-8.11,2.03-11.79c1.35-3.68,3.29-6.88,5.82-9.61
		c2.53-2.72,5.61-4.88,9.25-6.47C506.37,134.12,510.48,133.33,515.06,133.33z M515.36,143.89c-4.3,0-7.66,1.21-10.09,3.64
		c-2.43,2.43-3.98,5.87-4.65,10.32h27.69c0-1.91-0.26-3.71-0.78-5.4c-0.52-1.69-1.31-3.17-2.39-4.45c-1.07-1.27-2.43-2.28-4.06-3.01
		C519.45,144.26,517.54,143.89,515.36,143.89z"/>
	<path fill="#FFFFFF" d="M553.55,215.51v-81.22h9.01c0.95,0,1.77,0.22,2.45,0.66c0.68,0.44,1.11,1.11,1.31,2.03l1.19,5.67
		c2.47-2.82,5.3-5.11,8.5-6.86c3.2-1.75,6.95-2.63,11.25-2.63c3.34,0,6.4,0.7,9.16,2.09c2.76,1.39,5.15,3.41,7.16,6.06
		c2.01,2.65,3.56,5.91,4.66,9.79c1.09,3.88,1.64,8.33,1.64,13.34c0,4.58-0.62,8.81-1.85,12.71c-1.23,3.9-2.99,7.28-5.28,10.15
		c-2.29,2.86-5.05,5.1-8.3,6.71c-3.24,1.61-6.87,2.42-10.89,2.42c-3.46,0-6.4-0.53-8.8-1.58c-2.41-1.05-4.57-2.52-6.48-4.39v25.07
		H553.55z M582.2,144.79c-3.06,0-5.68,0.65-7.85,1.94c-2.17,1.29-4.19,3.11-6.06,5.46v27.45c1.67,2.07,3.49,3.51,5.46,4.33
		c1.97,0.82,4.09,1.22,6.36,1.22c2.23,0,4.25-0.42,6.06-1.25c1.81-0.84,3.34-2.11,4.59-3.82c1.25-1.71,2.22-3.87,2.89-6.48
		c0.68-2.61,1.01-5.68,1.01-9.22c0-3.58-0.29-6.61-0.86-9.1c-0.58-2.49-1.4-4.51-2.48-6.06c-1.07-1.55-2.38-2.69-3.91-3.4
		C585.89,145.14,584.14,144.79,582.2,144.79z"/>
	<path fill="#FFFFFF" d="M647.19,133.33c4.57,0,8.72,0.74,12.44,2.21c3.72,1.47,6.89,3.56,9.52,6.27c2.63,2.71,4.66,6.01,6.09,9.91
		c1.43,3.9,2.15,8.26,2.15,13.07c0,4.85-0.72,9.23-2.15,13.13c-1.43,3.9-3.46,7.22-6.09,9.97c-2.63,2.75-5.8,4.85-9.52,6.33
		c-3.72,1.47-7.87,2.21-12.44,2.21c-4.58,0-8.73-0.74-12.47-2.21c-3.74-1.47-6.93-3.58-9.58-6.33c-2.65-2.75-4.7-6.07-6.15-9.97
		c-1.45-3.9-2.18-8.27-2.18-13.13c0-4.81,0.73-9.17,2.18-13.07c1.45-3.9,3.5-7.2,6.15-9.91c2.65-2.71,5.84-4.79,9.58-6.27
		C638.45,134.06,642.61,133.33,647.19,133.33z M647.19,185.07c5.09,0,8.86-1.71,11.31-5.13c2.45-3.42,3.67-8.43,3.67-15.04
		c0-6.6-1.22-11.64-3.67-15.1c-2.45-3.46-6.22-5.19-11.31-5.19c-5.17,0-8.99,1.74-11.46,5.22c-2.47,3.48-3.7,8.5-3.7,15.07
		s1.23,11.57,3.7,15.01C638.19,183.35,642.01,185.07,647.19,185.07z"/>
	<path fill="#FFFFFF" d="M725.25,146.22c-0.4,0.64-0.82,1.08-1.25,1.34c-0.44,0.26-0.99,0.39-1.67,0.39c-0.72,0-1.48-0.2-2.3-0.6
		c-0.82-0.4-1.76-0.84-2.83-1.34c-1.07-0.5-2.3-0.94-3.67-1.34c-1.37-0.4-2.99-0.6-4.86-0.6c-2.9,0-5.19,0.62-6.86,1.85
		c-1.67,1.23-2.51,2.85-2.51,4.83c0,1.31,0.43,2.42,1.28,3.31c0.85,0.9,1.99,1.68,3.4,2.36c1.41,0.68,3.01,1.28,4.8,1.82
		c1.79,0.54,3.62,1.12,5.49,1.76c1.87,0.64,3.7,1.36,5.49,2.18c1.79,0.82,3.39,1.85,4.8,3.1c1.41,1.25,2.55,2.76,3.4,4.51
		c0.86,1.75,1.28,3.86,1.28,6.33c0,2.94-0.54,5.66-1.61,8.15c-1.07,2.49-2.65,4.64-4.71,6.45c-2.07,1.81-4.62,3.22-7.67,4.24
		s-6.53,1.52-10.47,1.52c-2.11,0-4.17-0.19-6.18-0.57c-2.01-0.38-3.94-0.9-5.79-1.58c-1.85-0.68-3.56-1.47-5.13-2.39
		c-1.57-0.92-2.95-1.91-4.15-2.98l3.4-5.61c0.44-0.68,0.95-1.19,1.55-1.55c0.6-0.36,1.35-0.54,2.27-0.54c0.92,0,1.78,0.26,2.6,0.78
		c0.81,0.52,1.76,1.07,2.83,1.67c1.07,0.6,2.34,1.15,3.79,1.67c1.45,0.52,3.29,0.78,5.52,0.78c1.75,0,3.25-0.21,4.51-0.63
		c1.25-0.42,2.29-0.96,3.1-1.64c0.81-0.68,1.41-1.46,1.79-2.36c0.38-0.9,0.57-1.82,0.57-2.77c0-1.43-0.43-2.61-1.28-3.52
		c-0.86-0.92-1.99-1.71-3.4-2.39c-1.41-0.68-3.02-1.28-4.83-1.82c-1.81-0.54-3.66-1.12-5.55-1.76c-1.89-0.64-3.74-1.38-5.55-2.24
		c-1.81-0.86-3.42-1.94-4.83-3.25c-1.41-1.31-2.55-2.92-3.4-4.83c-0.86-1.91-1.28-4.22-1.28-6.92c0-2.51,0.5-4.89,1.49-7.16
		c0.99-2.27,2.46-4.25,4.39-5.94c1.93-1.69,4.34-3.04,7.22-4.06c2.88-1.01,6.22-1.52,10-1.52c4.22,0,8.06,0.7,11.52,2.09
		c3.46,1.39,6.35,3.22,8.65,5.49L725.25,146.22z"/>
	<path fill="#FFFFFF" d="M758.96,116.44c0,1.27-0.26,2.47-0.78,3.58c-0.52,1.11-1.2,2.09-2.06,2.92c-0.86,0.84-1.86,1.5-3.01,2
		c-1.15,0.5-2.39,0.75-3.7,0.75c-1.27,0-2.48-0.25-3.61-0.75c-1.13-0.5-2.12-1.16-2.95-2c-0.84-0.84-1.5-1.81-2-2.92
		c-0.5-1.11-0.75-2.31-0.75-3.58c0-1.31,0.25-2.55,0.75-3.7c0.5-1.15,1.16-2.15,2-2.98c0.84-0.84,1.82-1.5,2.95-2
		c1.13-0.5,2.34-0.75,3.61-0.75c1.31,0,2.55,0.25,3.7,0.75c1.15,0.5,2.16,1.16,3.01,2c0.86,0.84,1.54,1.83,2.06,2.98
		C758.71,113.89,758.96,115.13,758.96,116.44z M756.76,134.28v61.23h-14.74v-61.23H756.76z"/>
	<path fill="#FFFFFF" d="M793.52,196.47c-5.29,0-9.37-1.5-12.23-4.51c-2.86-3-4.3-7.15-4.3-12.44v-34.2h-6.21
		c-0.8,0-1.48-0.26-2.06-0.78c-0.58-0.52-0.87-1.29-0.87-2.33v-5.85l9.85-1.61l3.1-16.71c0.16-0.8,0.53-1.41,1.1-1.85
		c0.58-0.44,1.3-0.66,2.18-0.66h7.64v19.28h16.11v10.5h-16.11v33.18c0,1.91,0.48,3.4,1.43,4.48c0.96,1.07,2.23,1.61,3.82,1.61
		c0.92,0,1.68-0.11,2.3-0.33c0.62-0.22,1.15-0.45,1.61-0.69c0.46-0.24,0.86-0.47,1.22-0.69c0.36-0.22,0.72-0.33,1.07-0.33
		c0.44,0,0.8,0.11,1.07,0.33c0.28,0.22,0.58,0.55,0.89,0.98l4.42,7.16c-2.15,1.79-4.62,3.14-7.4,4.06
		C799.39,196.01,796.5,196.47,793.52,196.47z"/>
	<path fill="#FFFFFF" d="M845.74,133.33c4.57,0,8.72,0.74,12.44,2.21c3.72,1.47,6.89,3.56,9.52,6.27c2.63,2.71,4.66,6.01,6.09,9.91
		c1.43,3.9,2.15,8.26,2.15,13.07c0,4.85-0.72,9.23-2.15,13.13c-1.43,3.9-3.46,7.22-6.09,9.97s-5.8,4.85-9.52,6.33
		c-3.72,1.47-7.87,2.21-12.44,2.21c-4.58,0-8.73-0.74-12.47-2.21c-3.74-1.47-6.93-3.58-9.58-6.33c-2.65-2.75-4.7-6.07-6.15-9.97
		c-1.45-3.9-2.18-8.27-2.18-13.13c0-4.81,0.73-9.17,2.18-13.07c1.45-3.9,3.5-7.2,6.15-9.91c2.65-2.71,5.84-4.79,9.58-6.27
		C837,134.06,841.16,133.33,845.74,133.33z M845.74,185.07c5.09,0,8.86-1.71,11.31-5.13c2.45-3.42,3.67-8.43,3.67-15.04
		c0-6.6-1.22-11.64-3.67-15.1c-2.45-3.46-6.22-5.19-11.31-5.19c-5.17,0-8.99,1.74-11.46,5.22c-2.47,3.48-3.7,8.5-3.7,15.07
		s1.23,11.57,3.7,15.01C836.75,183.35,840.57,185.07,845.74,185.07z M866.45,108.26l-14.74,15.58c-0.76,0.8-1.48,1.34-2.18,1.64
		c-0.7,0.3-1.6,0.45-2.72,0.45h-8.83l8.47-14.5c0.6-1.03,1.29-1.82,2.09-2.36c0.8-0.54,1.99-0.81,3.58-0.81H866.45z"/>
	<path fill="#FFFFFF" d="M887.45,195.51v-61.23h8.65c1.51,0,2.57,0.28,3.16,0.84c0.6,0.56,0.99,1.51,1.19,2.86l0.89,7.4
		c2.19-3.78,4.75-6.76,7.7-8.95c2.94-2.19,6.25-3.28,9.91-3.28c3.02,0,5.53,0.7,7.52,2.09l-1.91,11.04
		c-0.12,0.72-0.38,1.22-0.78,1.52c-0.4,0.3-0.94,0.45-1.61,0.45c-0.6,0-1.41-0.14-2.45-0.42c-1.04-0.28-2.41-0.42-4.12-0.42
		c-3.06,0-5.69,0.85-7.88,2.54c-2.19,1.69-4.04,4.17-5.55,7.43v38.14H887.45z"/>
	<path fill="#FFFFFF" d="M954.11,116.44c0,1.27-0.26,2.47-0.78,3.58c-0.52,1.11-1.2,2.09-2.06,2.92c-0.86,0.84-1.86,1.5-3.01,2
		c-1.15,0.5-2.39,0.75-3.7,0.75c-1.27,0-2.48-0.25-3.61-0.75c-1.13-0.5-2.12-1.16-2.95-2c-0.84-0.84-1.5-1.81-2-2.92
		c-0.5-1.11-0.75-2.31-0.75-3.58c0-1.31,0.25-2.55,0.75-3.7c0.5-1.15,1.16-2.15,2-2.98c0.84-0.84,1.82-1.5,2.95-2
		c1.13-0.5,2.34-0.75,3.61-0.75c1.31,0,2.55,0.25,3.7,0.75c1.15,0.5,2.16,1.16,3.01,2c0.86,0.84,1.54,1.83,2.06,2.98
		C953.85,113.89,954.11,115.13,954.11,116.44z M951.91,134.28v61.23h-14.74v-61.23H951.91z"/>
	<path fill="#FFFFFF" d="M994.7,133.33c4.57,0,8.72,0.74,12.44,2.21c3.72,1.47,6.89,3.56,9.52,6.27c2.63,2.71,4.66,6.01,6.09,9.91
		c1.43,3.9,2.15,8.26,2.15,13.07c0,4.85-0.72,9.23-2.15,13.13c-1.43,3.9-3.46,7.22-6.09,9.97c-2.63,2.75-5.8,4.85-9.52,6.33
		c-3.72,1.47-7.87,2.21-12.44,2.21c-4.58,0-8.73-0.74-12.47-2.21c-3.74-1.47-6.93-3.58-9.58-6.33c-2.65-2.75-4.7-6.07-6.15-9.97
		c-1.45-3.9-2.18-8.27-2.18-13.13c0-4.81,0.73-9.17,2.18-13.07c1.45-3.9,3.5-7.2,6.15-9.91c2.65-2.71,5.84-4.79,9.58-6.27
		C985.96,134.06,990.12,133.33,994.7,133.33z M994.7,185.07c5.09,0,8.86-1.71,11.31-5.13c2.45-3.42,3.67-8.43,3.67-15.04
		c0-6.6-1.22-11.64-3.67-15.1c-2.45-3.46-6.22-5.19-11.31-5.19c-5.17,0-8.99,1.74-11.46,5.22c-2.47,3.48-3.7,8.5-3.7,15.07
		s1.23,11.57,3.7,15.01C985.7,183.35,989.52,185.07,994.7,185.07z"/>
	<g>
		<path fill="#FFFFFF" d="M1066.83,196.44h-15.1v-80.85h15.1V196.44z"/>
		<path fill="#FFFFFF" d="M1084.22,196.44v-57.37h8.44c1.79,0,2.96,0.84,3.52,2.52l0.95,4.53c1.15-1.19,2.38-2.27,3.66-3.24
			c1.29-0.97,2.65-1.81,4.08-2.52c1.44-0.71,2.97-1.25,4.61-1.62c1.64-0.37,3.43-0.56,5.37-0.56c3.13,0,5.91,0.53,8.33,1.59
			c2.42,1.06,4.45,2.55,6.07,4.47c1.62,1.92,2.85,4.21,3.69,6.88c0.84,2.67,1.26,5.6,1.26,8.81v36.51h-13.81v-36.51
			c0-3.5-0.81-6.22-2.43-8.14c-1.62-1.92-4.05-2.88-7.3-2.88c-2.39,0-4.62,0.54-6.71,1.62c-2.09,1.08-4.06,2.55-5.93,4.42v41.49
			H1084.22z"/>
		<path fill="#FFFFFF" d="M1181.85,150.25c-0.37,0.6-0.76,1.02-1.17,1.26c-0.41,0.24-0.93,0.36-1.57,0.36
			c-0.67,0-1.39-0.19-2.15-0.56c-0.76-0.37-1.65-0.79-2.66-1.26c-1.01-0.47-2.15-0.88-3.44-1.26c-1.29-0.37-2.81-0.56-4.56-0.56
			c-2.72,0-4.86,0.58-6.43,1.73c-1.57,1.16-2.35,2.67-2.35,4.53c0,1.23,0.4,2.26,1.2,3.1c0.8,0.84,1.86,1.58,3.19,2.21
			c1.32,0.63,2.82,1.2,4.5,1.71c1.68,0.5,3.39,1.05,5.15,1.65c1.75,0.6,3.47,1.28,5.14,2.04c1.68,0.76,3.18,1.73,4.5,2.91
			c1.32,1.17,2.39,2.58,3.19,4.22c0.8,1.64,1.2,3.62,1.2,5.93c0,2.76-0.5,5.3-1.51,7.63c-1.01,2.33-2.48,4.34-4.42,6.04
			c-1.94,1.7-4.33,3.02-7.19,3.97c-2.85,0.95-6.12,1.43-9.81,1.43c-1.98,0-3.9-0.18-5.79-0.53c-1.88-0.35-3.69-0.85-5.42-1.48
			c-1.73-0.63-3.34-1.38-4.81-2.24c-1.47-0.86-2.77-1.79-3.89-2.8l3.19-5.26c0.41-0.63,0.89-1.12,1.45-1.45s1.27-0.5,2.12-0.5
			s1.67,0.24,2.43,0.73c0.76,0.48,1.65,1.01,2.66,1.57c1.01,0.56,2.19,1.08,3.55,1.57c1.36,0.48,3.08,0.73,5.17,0.73
			c1.64,0,3.05-0.2,4.22-0.59c1.17-0.39,2.14-0.9,2.91-1.54c0.76-0.63,1.32-1.37,1.68-2.21c0.35-0.84,0.53-1.71,0.53-2.6
			c0-1.34-0.4-2.44-1.2-3.3c-0.8-0.86-1.86-1.6-3.19-2.24c-1.32-0.63-2.83-1.2-4.53-1.71c-1.7-0.5-3.43-1.05-5.2-1.65
			c-1.77-0.6-3.5-1.3-5.2-2.1c-1.7-0.8-3.21-1.82-4.53-3.05c-1.32-1.23-2.39-2.74-3.19-4.53c-0.8-1.79-1.2-3.95-1.2-6.49
			c0-2.35,0.47-4.58,1.4-6.71c0.93-2.12,2.3-3.98,4.11-5.56c1.81-1.58,4.06-2.85,6.77-3.8c2.7-0.95,5.82-1.43,9.37-1.43
			c3.95,0,7.55,0.65,10.79,1.96c3.24,1.31,5.95,3.02,8.11,5.14L1181.85,150.25z"/>
		<path fill="#FFFFFF" d="M1215.51,197.33c-4.96,0-8.78-1.41-11.46-4.22c-2.68-2.81-4.03-6.7-4.03-11.66v-32.04h-5.81
			c-0.75,0-1.39-0.24-1.93-0.73c-0.54-0.48-0.81-1.21-0.81-2.18v-5.48l9.23-1.51l2.91-15.66c0.15-0.75,0.49-1.32,1.03-1.73
			c0.54-0.41,1.22-0.62,2.04-0.62h7.16v18.06h15.1v9.84h-15.1v31.09c0,1.79,0.45,3.19,1.34,4.19s2.09,1.51,3.58,1.51
			c0.86,0,1.57-0.1,2.15-0.31c0.58-0.2,1.08-0.42,1.51-0.64c0.43-0.22,0.81-0.44,1.15-0.64c0.33-0.2,0.67-0.31,1.01-0.31
			c0.41,0,0.74,0.1,1.01,0.31c0.26,0.21,0.54,0.51,0.84,0.92l4.14,6.71c-2.01,1.68-4.33,2.95-6.93,3.8
			C1221.01,196.9,1218.31,197.33,1215.51,197.33z"/>
		<path fill="#FFFFFF" d="M1256.72,122.35c0,1.19-0.24,2.31-0.73,3.36c-0.49,1.04-1.13,1.96-1.93,2.74
			c-0.8,0.78-1.74,1.41-2.82,1.87c-1.08,0.47-2.24,0.7-3.47,0.7c-1.19,0-2.32-0.23-3.38-0.7c-1.06-0.47-1.99-1.09-2.77-1.87
			c-0.78-0.78-1.41-1.7-1.87-2.74c-0.47-1.04-0.7-2.16-0.7-3.36c0-1.23,0.23-2.39,0.7-3.47c0.47-1.08,1.09-2.01,1.87-2.8
			c0.78-0.78,1.71-1.41,2.77-1.87c1.06-0.47,2.19-0.7,3.38-0.7c1.23,0,2.39,0.23,3.47,0.7c1.08,0.47,2.02,1.09,2.82,1.87
			c0.8,0.78,1.44,1.72,1.93,2.8C1256.48,119.97,1256.72,121.12,1256.72,122.35z M1254.65,139.07v57.37h-13.81v-57.37H1254.65z"/>
		<path fill="#FFFFFF" d="M1289.09,197.33c-4.96,0-8.78-1.41-11.46-4.22c-2.68-2.81-4.03-6.7-4.03-11.66v-32.04h-5.81
			c-0.75,0-1.39-0.24-1.93-0.73c-0.54-0.48-0.81-1.21-0.81-2.18v-5.48l9.23-1.51l2.91-15.66c0.15-0.75,0.49-1.32,1.03-1.73
			c0.54-0.41,1.22-0.62,2.04-0.62h7.16v18.06h15.1v9.84h-15.1v31.09c0,1.79,0.45,3.19,1.34,4.19s2.09,1.51,3.58,1.51
			c0.86,0,1.57-0.1,2.15-0.31c0.58-0.2,1.08-0.42,1.51-0.64c0.43-0.22,0.81-0.44,1.15-0.64c0.33-0.2,0.67-0.31,1.01-0.31
			c0.41,0,0.74,0.1,1.01,0.31c0.26,0.21,0.54,0.51,0.84,0.92l4.14,6.71c-2.01,1.68-4.33,2.95-6.93,3.8
			C1294.59,196.9,1291.89,197.33,1289.09,197.33z"/>
		<path fill="#FFFFFF" d="M1326.16,139.07v36.46c0,3.5,0.81,6.22,2.43,8.14c1.62,1.92,4.05,2.88,7.3,2.88
			c2.39,0,4.62-0.53,6.71-1.59c2.09-1.06,4.06-2.52,5.93-4.39v-41.49h13.81v57.37h-8.44c-1.79,0-2.96-0.84-3.52-2.52l-0.95-4.59
			c-1.19,1.19-2.42,2.28-3.69,3.27c-1.27,0.99-2.62,1.83-4.05,2.52c-1.44,0.69-2.98,1.23-4.64,1.62c-1.66,0.39-3.44,0.59-5.34,0.59
			c-3.13,0-5.9-0.53-8.3-1.59c-2.4-1.06-4.43-2.56-6.07-4.5c-1.64-1.94-2.88-4.24-3.72-6.91c-0.84-2.66-1.26-5.6-1.26-8.81v-36.46
			H1326.16z"/>
		<path fill="#FFFFFF" d="M1417.42,151.2c-0.41,0.52-0.81,0.93-1.2,1.23c-0.39,0.3-0.96,0.45-1.71,0.45c-0.71,0-1.4-0.21-2.07-0.64
			c-0.67-0.43-1.47-0.91-2.4-1.45c-0.93-0.54-2.04-1.03-3.33-1.45c-1.29-0.43-2.88-0.64-4.78-0.64c-2.42,0-4.55,0.44-6.37,1.31
			c-1.83,0.88-3.35,2.13-4.56,3.77c-1.21,1.64-2.12,3.63-2.71,5.95c-0.6,2.33-0.89,4.97-0.89,7.91c0,3.06,0.33,5.78,0.98,8.16
			c0.65,2.39,1.59,4.39,2.82,6.01c1.23,1.62,2.72,2.85,4.47,3.69c1.75,0.84,3.73,1.26,5.93,1.26c2.2,0,3.98-0.27,5.34-0.81
			c1.36-0.54,2.51-1.14,3.44-1.79c0.93-0.65,1.74-1.25,2.43-1.79c0.69-0.54,1.46-0.81,2.32-0.81c1.12,0,1.96,0.43,2.52,1.29
			l3.97,5.03c-1.53,1.79-3.19,3.29-4.98,4.5c-1.79,1.21-3.64,2.18-5.56,2.91c-1.92,0.73-3.9,1.24-5.95,1.54
			c-2.05,0.3-4.08,0.45-6.09,0.45c-3.54,0-6.88-0.66-10.01-1.98s-5.86-3.25-8.19-5.79c-2.33-2.53-4.18-5.64-5.54-9.31
			c-1.36-3.67-2.04-7.86-2.04-12.55c0-4.21,0.61-8.12,1.82-11.71c1.21-3.6,2.99-6.71,5.34-9.34c2.35-2.63,5.26-4.69,8.72-6.18
			c3.47-1.49,7.46-2.24,11.97-2.24c4.29,0,8.04,0.69,11.27,2.07c3.22,1.38,6.12,3.36,8.7,5.93L1417.42,151.2z"/>
		<path fill="#FFFFFF" d="M1447.22,122.35c0,1.19-0.24,2.31-0.73,3.36c-0.49,1.04-1.13,1.96-1.93,2.74
			c-0.8,0.78-1.74,1.41-2.82,1.87c-1.08,0.47-2.24,0.7-3.47,0.7c-1.19,0-2.32-0.23-3.38-0.7c-1.06-0.47-1.99-1.09-2.77-1.87
			c-0.78-0.78-1.41-1.7-1.87-2.74c-0.47-1.04-0.7-2.16-0.7-3.36c0-1.23,0.23-2.39,0.7-3.47c0.47-1.08,1.09-2.01,1.87-2.8
			c0.78-0.78,1.71-1.41,2.77-1.87c1.06-0.47,2.19-0.7,3.38-0.7c1.23,0,2.39,0.23,3.47,0.7c1.08,0.47,2.02,1.09,2.82,1.87
			c0.8,0.78,1.44,1.72,1.93,2.8C1446.98,119.97,1447.22,121.12,1447.22,122.35z M1445.15,139.07v57.37h-13.81v-57.37H1445.15z"/>
		<path fill="#FFFFFF" d="M1485.24,138.17c4.29,0,8.17,0.69,11.66,2.07c3.48,1.38,6.46,3.34,8.92,5.87c2.46,2.54,4.36,5.63,5.7,9.28
			c1.34,3.65,2.01,7.74,2.01,12.25c0,4.55-0.67,8.65-2.01,12.3c-1.34,3.65-3.24,6.77-5.7,9.34c-2.46,2.57-5.43,4.55-8.92,5.93
			c-3.49,1.38-7.37,2.07-11.66,2.07c-4.29,0-8.18-0.69-11.69-2.07c-3.5-1.38-6.5-3.36-8.97-5.93c-2.48-2.57-4.4-5.68-5.76-9.34
			c-1.36-3.65-2.04-7.75-2.04-12.3c0-4.51,0.68-8.59,2.04-12.25c1.36-3.65,3.28-6.75,5.76-9.28c2.48-2.53,5.47-4.49,8.97-5.87
			C1477.06,138.86,1480.95,138.17,1485.24,138.17z M1485.24,186.65c4.77,0,8.3-1.6,10.6-4.81c2.29-3.21,3.44-7.9,3.44-14.09
			c0-6.19-1.15-10.9-3.44-14.15c-2.29-3.24-5.83-4.86-10.6-4.86c-4.85,0-8.42,1.63-10.74,4.89c-2.31,3.26-3.47,7.97-3.47,14.12
			s1.15,10.84,3.47,14.06C1476.82,185.04,1480.39,186.65,1485.24,186.65z"/>
		<path fill="#FFFFFF" d="M1524.33,196.44v-57.37h8.44c1.79,0,2.96,0.84,3.52,2.52l0.95,4.53c1.15-1.19,2.38-2.27,3.66-3.24
			c1.29-0.97,2.65-1.81,4.08-2.52c1.44-0.71,2.97-1.25,4.61-1.62c1.64-0.37,3.43-0.56,5.37-0.56c3.13,0,5.91,0.53,8.33,1.59
			c2.42,1.06,4.45,2.55,6.07,4.47c1.62,1.92,2.85,4.21,3.69,6.88c0.84,2.67,1.26,5.6,1.26,8.81v36.51h-13.81v-36.51
			c0-3.5-0.81-6.22-2.43-8.14c-1.62-1.92-4.05-2.88-7.3-2.88c-2.39,0-4.62,0.54-6.71,1.62c-2.09,1.08-4.06,2.55-5.93,4.42v41.49
			H1524.33z"/>
		<path fill="#FFFFFF" d="M1632.86,196.44h-6.21c-1.31,0-2.33-0.2-3.08-0.59c-0.75-0.39-1.3-1.18-1.68-2.38l-1.23-4.08
			c-1.45,1.31-2.88,2.45-4.28,3.44c-1.4,0.99-2.84,1.82-4.33,2.49c-1.49,0.67-3.08,1.17-4.75,1.51c-1.68,0.34-3.54,0.5-5.59,0.5
			c-2.42,0-4.66-0.33-6.71-0.98c-2.05-0.65-3.81-1.64-5.28-2.95c-1.47-1.31-2.62-2.94-3.44-4.88c-0.82-1.94-1.23-4.21-1.23-6.79
			c0-2.17,0.57-4.31,1.71-6.42c1.14-2.11,3.03-4.02,5.68-5.72c2.65-1.7,6.17-3.11,10.57-4.24c4.4-1.12,9.86-1.68,16.38-1.68v-3.38
			c0-3.87-0.81-6.73-2.43-8.59s-3.98-2.79-7.07-2.79c-2.24,0-4.1,0.26-5.59,0.78c-1.49,0.52-2.79,1.11-3.89,1.76
			c-1.1,0.65-2.12,1.24-3.05,1.76c-0.93,0.52-1.96,0.78-3.08,0.78c-0.93,0-1.73-0.24-2.4-0.73c-0.67-0.48-1.21-1.08-1.62-1.79
			l-2.52-4.42c6.6-6.04,14.56-9.06,23.88-9.06c3.36,0,6.35,0.55,8.97,1.65c2.63,1.1,4.85,2.63,6.68,4.58s3.22,4.3,4.17,7.02
			c0.95,2.72,1.43,5.7,1.43,8.95V196.44z M1606.02,187.83c1.42,0,2.72-0.13,3.91-0.39c1.19-0.26,2.32-0.64,3.38-1.16
			c1.06-0.51,2.09-1.15,3.07-1.9c0.99-0.75,1.99-1.64,2.99-2.67v-9.6c-4.03,0-7.39,0.25-10.09,0.76c-2.7,0.51-4.87,1.15-6.51,1.94
			c-1.64,0.79-2.81,1.71-3.49,2.76c-0.69,1.05-1.03,2.2-1.03,3.43c0,2.44,0.72,4.19,2.15,5.24
			C1601.83,187.3,1603.7,187.83,1606.02,187.83z"/>
		<path fill="#FFFFFF" d="M1661.15,113.35v83.09h-13.81v-83.09H1661.15z"/>
	</g>
</g>
<g>
	<path fill="#FFFFFF" d="M420.67,246.02v3.8h-0.19c0-0.93-0.33-1.69-0.98-2.28c-0.65-0.59-1.45-0.89-2.37-0.89h-1.01v-0.63H420.67z
		 M424.59,246.02v27.84c0,3.04,0.56,5.72,1.68,8.04c1.12,2.32,2.69,4.13,4.71,5.41c2.03,1.29,4.37,1.93,7.02,1.93
		c2.83,0,5.29-0.61,7.4-1.83c2.11-1.22,3.75-2.92,4.94-5.09c1.18-2.17,1.77-4.71,1.77-7.63v-28.67h2.97v28.67
		c0,3.29-0.71,6.17-2.12,8.64c-1.41,2.47-3.41,4.4-5.98,5.79c-2.57,1.39-5.57,2.09-8.99,2.09c-3.5,0-6.57-0.69-9.21-2.06
		c-2.64-1.37-4.68-3.29-6.14-5.76c-1.46-2.47-2.18-5.35-2.18-8.64v-28.73H424.59z M428.96,246.02v0.63h-1.01
		c-0.93,0-1.72,0.3-2.37,0.89c-0.65,0.59-0.98,1.35-0.98,2.28h-0.13v-3.8H428.96z M452.31,246.02v3.8h-0.19
		c0-0.93-0.33-1.69-0.98-2.28s-1.45-0.89-2.37-0.89h-1.01v-0.63H452.31z M459.46,246.02v0.63h-1.01c-0.93,0-1.72,0.3-2.37,0.89
		c-0.65,0.59-0.98,1.35-0.98,2.28h-0.13v-3.8H459.46z"/>
	<path fill="#FFFFFF" d="M468.64,286.39v3.92h-4.75v-0.63h1.08c0.97,0,1.79-0.32,2.47-0.95c0.67-0.63,1.01-1.41,1.01-2.34H468.64z
		 M468.51,251.4l2.72,3.54l0.06,35.38h-2.85v-31.01c0-2.15-0.19-4.79-0.57-7.91H468.51z M468.51,251.4l35.06,33.03l0.63,6.77
		l-35.06-33.22L468.51,251.4z M471.3,286.39c0,0.93,0.35,1.71,1.04,2.34s1.51,0.95,2.44,0.95h1.08v0.63h-4.75v-3.92H471.3z
		 M501.42,256.27c-0.04-0.93-0.4-1.71-1.08-2.34s-1.5-0.95-2.47-0.95h-1.08v-0.63h4.75v3.92H501.42z M504.2,252.34v30.76
		c0,1.35,0.04,2.65,0.13,3.89c0.08,1.25,0.23,2.65,0.44,4.21h-0.57l-2.78-3.35v-35.5H504.2z M504.01,256.27v-3.92h4.75v0.63h-1.08
		c-0.93,0-1.74,0.32-2.44,0.95c-0.7,0.63-1.04,1.41-1.04,2.34H504.01z"/>
	<path fill="#FFFFFF" d="M519.83,256.4h-0.19c-0.04-0.97-0.47-1.78-1.3-2.44c-0.82-0.65-1.83-0.98-3.01-0.98c-0.04,0-0.34,0-0.89,0
		v-0.63h5.38V256.4z M519.83,286.26v4.05h-5.38v-0.63h0.89c1.18,0,2.18-0.34,3.01-1.01c0.82-0.67,1.25-1.48,1.3-2.4H519.83z
		 M523.63,252.34v37.97h-3.99v-37.97H523.63z M523.44,256.4v-4.05h5.38l-0.06,0.63h-0.82c-1.18,0-2.18,0.33-3.01,0.98
		c-0.82,0.65-1.26,1.47-1.3,2.44H523.44z M523.44,286.26h0.19c0.04,0.93,0.47,1.73,1.3,2.4c0.82,0.68,1.82,1.01,3.01,1.01h0.82
		l0.06,0.63h-5.38V286.26z"/>
	<path fill="#FFFFFF" d="M542.23,256.96h-4.81c-0.63-1.43-1.41-2.46-2.34-3.07c-0.93-0.61-1.81-0.92-2.66-0.92h-0.51v-0.63h12.97
		v0.63h-0.51c-0.72,0-1.36,0.35-1.93,1.04C541.89,254.72,541.81,255.7,542.23,256.96z M552.93,291.2l-17.4-38.48h5L554,285.57
		L552.93,291.2z M552.93,291.2l-0.44-4.37l14.49-34.3h3.99l-15,32.15c-0.46,1.01-0.85,1.89-1.17,2.63c-0.32,0.74-0.6,1.47-0.85,2.18
		c-0.25,0.72-0.4,1.29-0.44,1.71H552.93z M565.14,256.96c0.46-1.27,0.4-2.25-0.19-2.94c-0.59-0.7-1.27-1.04-2.03-1.04h-0.44v-0.63
		h12.02v0.63H574c-0.89,0-1.79,0.31-2.72,0.92c-0.93,0.61-1.73,1.64-2.4,3.07H565.14z"/>
	<path fill="#FFFFFF" d="M582.35,256.33h-0.13c-0.04-0.97-0.4-1.77-1.08-2.41s-1.54-0.95-2.59-0.95h-0.89v-0.63h5.51L582.35,256.33z
		 M582.35,286.26l0.82,4.05h-5.51v-0.63h0.89c1.05,0,1.92-0.34,2.59-1.01c0.67-0.67,1.03-1.48,1.08-2.4H582.35z M586.28,252.34
		v37.97h-4.05v-37.97H586.28z M603.24,252.34v1.96h-17.09v-1.96H603.24z M600.33,270.38v1.9h-14.18v-1.9H600.33z M603.3,288.35
		l-0.13,1.96h-17.02v-1.96H603.3z M606.84,281.26l-3.48,9.05h-9.62l2.15-1.96c2.11,0,3.81-0.31,5.09-0.92
		c1.29-0.61,2.33-1.46,3.13-2.53c0.8-1.08,1.5-2.29,2.09-3.64H606.84z M603.24,251.33v1.64l-7.21-0.63c1.31,0,2.7-0.12,4.18-0.35
		C601.68,251.77,602.69,251.54,603.24,251.33z M600.33,266.9v3.61h-3.29v-0.13c0.89,0,1.54-0.26,1.96-0.79
		c0.42-0.53,0.63-1.15,0.63-1.87v-0.82H600.33z M600.33,272.15v3.61h-0.7v-0.82c0-0.72-0.21-1.34-0.63-1.87
		c-0.42-0.53-1.08-0.79-1.96-0.79v-0.13H600.33z M603.24,254.12v4.37h-0.7v-0.95c0-0.89-0.29-1.65-0.85-2.28s-1.34-0.95-2.31-0.95
		v-0.19H603.24z"/>
	<path fill="#FFFFFF" d="M616.21,256.33h-0.13c-0.04-0.97-0.4-1.77-1.08-2.41s-1.52-0.95-2.53-0.95h-0.89v-0.63h5.38L616.21,256.33z
		 M616.21,286.26l0.76,4.05h-5.38v-0.63h0.89c1.01,0,1.86-0.34,2.53-1.01c0.67-0.67,1.03-1.48,1.08-2.4H616.21z M620.07,252.34
		v37.97h-4.05v-37.97H620.07z M619.88,286.26h0.19c0.04,0.93,0.4,1.73,1.08,2.4c0.67,0.68,1.52,1.01,2.53,1.01h0.82l0.06,0.63h-5.44
		L619.88,286.26z M627.47,252.34c1.98,0,3.77,0.23,5.35,0.7c1.58,0.46,2.93,1.14,4.05,2.03c1.12,0.89,1.97,1.96,2.56,3.23
		s0.89,2.7,0.89,4.3c0,1.77-0.42,3.42-1.27,4.94c-0.84,1.52-2.02,2.76-3.51,3.73c-1.5,0.97-3.2,1.56-5.09,1.77
		c0.72,0.3,1.55,0.95,2.5,1.96s1.76,2,2.44,2.97c1.1,1.48,2.08,2.75,2.94,3.83c0.86,1.08,1.72,2.1,2.56,3.07
		c0.89,0.97,1.7,1.81,2.44,2.53c0.74,0.72,1.54,1.28,2.4,1.68c0.86,0.4,1.87,0.6,3.01,0.6v0.63h-1.96c-2.32,0-4.23-0.29-5.73-0.89
		c-1.5-0.59-2.71-1.32-3.64-2.18c-0.93-0.86-1.73-1.7-2.41-2.5c-0.17-0.21-0.56-0.75-1.17-1.61c-0.61-0.86-1.28-1.8-1.99-2.82
		c-0.72-1.01-1.37-1.93-1.96-2.75c-0.59-0.82-0.95-1.32-1.08-1.49c-0.84-1.1-1.81-2.08-2.91-2.94c-1.1-0.86-2.26-1.3-3.48-1.3v-0.63
		c1.35,0.04,2.55,0.04,3.61,0c1.18-0.04,2.36-0.14,3.54-0.28c1.18-0.15,2.29-0.6,3.32-1.36c1.03-0.76,1.84-2.02,2.44-3.8
		c0.17-0.46,0.29-1.01,0.38-1.65c0.08-0.63,0.11-1.29,0.06-1.96c-0.04-1.18-0.26-2.24-0.66-3.16c-0.4-0.93-0.97-1.73-1.71-2.41
		c-0.74-0.67-1.61-1.2-2.63-1.58s-2.15-0.59-3.42-0.63c-1.98-0.08-3.71-0.1-5.19-0.06c-1.48,0.04-2.21,0.04-2.21,0
		c0-0.04-0.05-0.22-0.16-0.54c-0.11-0.32-0.26-0.79-0.47-1.42H627.47z"/>
	<path fill="#FFFFFF" d="M662.6,251.46c1.18,0,2.21,0.04,3.1,0.13c0.89,0.08,1.66,0.18,2.31,0.28c0.65,0.11,1.22,0.23,1.71,0.38
		c0.48,0.15,0.92,0.29,1.3,0.41l0.06,6.27h-0.76c0-1.73-0.59-3.09-1.77-4.08c-1.18-0.99-3.02-1.49-5.51-1.49
		c-2.11,0-3.91,0.58-5.41,1.74c-1.5,1.16-2.23,2.58-2.18,4.27c0,0.55,0.07,1.11,0.22,1.68c0.15,0.57,0.4,1.13,0.76,1.68
		c0.36,0.55,0.85,1.1,1.49,1.65l12.78,9.87c0.97,0.8,1.69,1.83,2.15,3.07c0.46,1.25,0.72,2.48,0.76,3.7
		c0.04,1.86-0.44,3.57-1.46,5.13c-1.01,1.56-2.37,2.8-4.08,3.7c-1.71,0.91-3.6,1.36-5.66,1.36c-1.22,0-2.54-0.11-3.96-0.32
		c-1.41-0.21-2.73-0.54-3.96-0.98c-1.22-0.44-2.24-1-3.04-1.68c-0.13-0.59-0.19-1.34-0.19-2.25c0-0.91,0.07-1.87,0.22-2.88
		c0.15-1.01,0.35-1.92,0.6-2.72h0.76c-0.17,1.9,0.1,3.52,0.82,4.87c0.72,1.35,1.77,2.37,3.17,3.07c1.39,0.7,3.02,1.02,4.87,0.98
		c2.62-0.08,4.67-0.75,6.17-1.99c1.5-1.24,2.25-2.9,2.25-4.97c0-1.01-0.18-1.93-0.54-2.75c-0.36-0.82-0.94-1.59-1.74-2.31
		l-12.66-9.75c-1.18-1.01-1.98-2.13-2.41-3.35c-0.42-1.22-0.63-2.38-0.63-3.48c0-1.73,0.46-3.29,1.39-4.68
		c0.93-1.39,2.18-2.5,3.77-3.32C658.89,251.87,660.65,251.46,662.6,251.46z M670.95,252.03l0.06,1.14h-4.49v-1.14H670.95z"/>
	<path fill="#FFFFFF" d="M685.88,256.4h-0.19c-0.04-0.97-0.47-1.78-1.3-2.44c-0.82-0.65-1.83-0.98-3.01-0.98c-0.04,0-0.34,0-0.89,0
		v-0.63h5.38V256.4z M685.88,286.26v4.05h-5.38v-0.63h0.89c1.18,0,2.18-0.34,3.01-1.01c0.82-0.67,1.25-1.48,1.3-2.4H685.88z
		 M689.68,252.34v37.97h-3.99v-37.97H689.68z M689.49,256.4v-4.05h5.38l-0.06,0.63h-0.82c-1.18,0-2.18,0.33-3.01,0.98
		c-0.82,0.65-1.26,1.47-1.3,2.44H689.49z M689.49,286.26h0.19c0.04,0.93,0.47,1.73,1.3,2.4c0.82,0.68,1.82,1.01,3.01,1.01h0.82
		l0.06,0.63h-5.38V286.26z"/>
	<path fill="#FFFFFF" d="M706.32,256.46h-0.13c-0.04-1.01-0.41-1.85-1.11-2.5c-0.7-0.65-1.55-0.98-2.56-0.98h-0.76v-0.63h4.56
		V256.46z M706.32,286.2v4.11h-4.56v-0.63h0.82c1.01,0,1.86-0.35,2.53-1.04c0.67-0.7,1.03-1.51,1.08-2.44H706.32z M710.31,252.34
		v37.97h-4.11v-37.97H710.31z M722.9,252.34c4.18,0,7.78,0.76,10.82,2.28c3.04,1.52,5.38,3.7,7.02,6.55
		c1.65,2.85,2.47,6.23,2.47,10.16c0,3.92-0.82,7.3-2.47,10.13c-1.64,2.83-3.99,5.01-7.02,6.55c-3.04,1.54-6.65,2.31-10.82,2.31
		h-13.48l-0.13-1.9c2.95,0,5.43,0,7.44,0s4.06,0,6.17,0c4.89,0,8.74-1.53,11.55-4.59c2.8-3.06,4.21-7.22,4.21-12.5
		s-1.4-9.44-4.21-12.5c-2.81-3.06-6.66-4.59-11.55-4.59c-2.19,0-4.35,0-6.46,0c-2.11,0-4.71,0-7.78,0v-1.9H722.9z"/>
	<path fill="#FFFFFF" d="M754.48,285.7c-0.46,1.27-0.4,2.25,0.19,2.94c0.59,0.7,1.27,1.04,2.03,1.04h0.51v0.63h-12.09v-0.63h0.51
		c0.89,0,1.79-0.31,2.72-0.92c0.93-0.61,1.73-1.63,2.4-3.07H754.48z M766.69,251.46l0.44,4.37l-14.49,34.3h-3.99l15-32.15
		c0.46-1.01,0.85-1.89,1.17-2.63c0.32-0.74,0.6-1.46,0.85-2.18c0.25-0.72,0.4-1.29,0.44-1.71H766.69z M774.16,275.57v1.9h-16.77
		v-1.9H774.16z M766.69,251.46l17.4,38.48h-5l-13.48-32.84L766.69,251.46z M777.39,285.7h4.81c0.63,1.43,1.41,2.46,2.34,3.07
		c0.93,0.61,1.81,0.92,2.66,0.92h0.51v0.63h-12.97v-0.63h0.51c0.72,0,1.37-0.35,1.96-1.04S777.85,286.96,777.39,285.7z"/>
	<path fill="#FFFFFF" d="M795.42,256.46h-0.13c-0.04-1.01-0.41-1.85-1.11-2.5c-0.7-0.65-1.55-0.98-2.56-0.98h-0.76v-0.63h4.56
		V256.46z M795.42,286.2v4.11h-4.56v-0.63h0.82c1.01,0,1.86-0.35,2.53-1.04c0.67-0.7,1.03-1.51,1.08-2.44H795.42z M799.41,252.34
		v37.97h-4.11v-37.97H799.41z M812,252.34c4.18,0,7.78,0.76,10.82,2.28c3.04,1.52,5.38,3.7,7.02,6.55
		c1.65,2.85,2.47,6.23,2.47,10.16c0,3.92-0.82,7.3-2.47,10.13c-1.64,2.83-3.99,5.01-7.02,6.55c-3.04,1.54-6.65,2.31-10.82,2.31
		h-13.48l-0.13-1.9c2.95,0,5.43,0,7.44,0s4.06,0,6.17,0c4.89,0,8.74-1.53,11.55-4.59c2.8-3.06,4.21-7.22,4.21-12.5
		s-1.4-9.44-4.21-12.5c-2.81-3.06-6.66-4.59-11.55-4.59c-2.19,0-4.35,0-6.46,0c-2.11,0-4.71,0-7.78,0v-1.9H812z"/>
	<path fill="#FFFFFF" d="M842.69,256.33h-0.13c-0.04-0.97-0.4-1.77-1.08-2.41s-1.54-0.95-2.59-0.95h-0.89v-0.63h5.51L842.69,256.33z
		 M842.69,286.26l0.82,4.05h-5.51v-0.63h0.89c1.05,0,1.92-0.34,2.59-1.01c0.67-0.67,1.03-1.48,1.08-2.4H842.69z M846.62,252.34
		v37.97h-4.05v-37.97H846.62z M863.58,252.34v1.96h-17.09v-1.96H863.58z M860.67,270.38v1.9h-14.18v-1.9H860.67z M863.64,288.35
		l-0.13,1.96h-17.02v-1.96H863.64z M867.19,281.26l-3.48,9.05h-9.62l2.15-1.96c2.11,0,3.81-0.31,5.09-0.92
		c1.29-0.61,2.33-1.46,3.13-2.53c0.8-1.08,1.5-2.29,2.09-3.64H867.19z M863.58,251.33v1.64l-7.21-0.63c1.31,0,2.7-0.12,4.18-0.35
		C862.02,251.77,863.03,251.54,863.58,251.33z M860.67,266.9v3.61h-3.29v-0.13c0.89,0,1.54-0.26,1.96-0.79
		c0.42-0.53,0.63-1.15,0.63-1.87v-0.82H860.67z M860.67,272.15v3.61h-0.7v-0.82c0-0.72-0.21-1.34-0.63-1.87
		c-0.42-0.53-1.08-0.79-1.96-0.79v-0.13H860.67z M863.58,254.12v4.37h-0.7v-0.95c0-0.89-0.29-1.65-0.85-2.28s-1.34-0.95-2.31-0.95
		v-0.19H863.58z"/>
	<path fill="#FFFFFF" d="M893.76,250.64h-0.19c0-1.1-0.4-2.04-1.2-2.82c-0.8-0.78-1.75-1.17-2.85-1.17h-0.76l-0.06-0.63h5.06V250.64
		z M893.76,285.7v4.62h-5.06v-0.63h0.82c1.1,0,2.04-0.39,2.82-1.17c0.78-0.78,1.19-1.72,1.23-2.82H893.76z M897.69,246.02v44.3
		h-4.11v-44.3H897.69z M914.77,246.02v1.96H897.5v-1.96H914.77z M912.05,267.53v1.9H897.5v-1.9H912.05z M897.5,285.7h0.19
		c0.04,1.1,0.45,2.04,1.23,2.82c0.78,0.78,1.72,1.17,2.82,1.17c0.51,0,0.78,0,0.82,0v0.63h-5.06V285.7z M914.77,244.88v1.83
		l-7.72-0.7c0.93,0,1.91-0.06,2.94-0.19c1.03-0.13,1.99-0.27,2.88-0.44C913.76,245.22,914.39,245.05,914.77,244.88z M912.05,263.48
		v4.18h-3.67v-0.13c0.84-0.04,1.56-0.37,2.15-0.98c0.59-0.61,0.89-1.34,0.89-2.18v-0.89H912.05z M912.05,269.3v4.18h-0.63v-0.95
		c0-0.84-0.3-1.57-0.89-2.18c-0.59-0.61-1.31-0.92-2.15-0.92v-0.13H912.05z M914.77,247.79v4.24h-0.63v-0.95
		c0-0.84-0.31-1.57-0.92-2.18c-0.61-0.61-1.34-0.92-2.18-0.92v-0.19H914.77z"/>
	<path fill="#FFFFFF" d="M924.77,256.33h-0.13c-0.04-0.97-0.4-1.77-1.08-2.41s-1.54-0.95-2.59-0.95h-0.89v-0.63h5.51L924.77,256.33z
		 M924.77,286.26l0.82,4.05h-5.51v-0.63h0.89c1.05,0,1.92-0.34,2.59-1.01c0.67-0.67,1.03-1.48,1.08-2.4H924.77z M928.69,252.34
		v37.97h-4.05v-37.97H928.69z M945.65,252.34v1.96h-17.09v-1.96H945.65z M942.74,270.38v1.9h-14.18v-1.9H942.74z M945.72,288.35
		l-0.13,1.96h-17.02v-1.96H945.72z M949.26,281.26l-3.48,9.05h-9.62l2.15-1.96c2.11,0,3.81-0.31,5.09-0.92
		c1.29-0.61,2.33-1.46,3.13-2.53c0.8-1.08,1.5-2.29,2.09-3.64H949.26z M945.65,251.33v1.64l-7.21-0.63c1.31,0,2.7-0.12,4.18-0.35
		C944.09,251.77,945.11,251.54,945.65,251.33z M942.74,266.9v3.61h-3.29v-0.13c0.89,0,1.54-0.26,1.96-0.79
		c0.42-0.53,0.63-1.15,0.63-1.87v-0.82H942.74z M942.74,272.15v3.61h-0.7v-0.82c0-0.72-0.21-1.34-0.63-1.87
		c-0.42-0.53-1.08-0.79-1.96-0.79v-0.13H942.74z M945.65,254.12v4.37h-0.7v-0.95c0-0.89-0.29-1.65-0.85-2.28s-1.34-0.95-2.31-0.95
		v-0.19H945.65z"/>
	<path fill="#FFFFFF" d="M958.56,256.46h-0.13c-0.04-1.01-0.41-1.85-1.11-2.5c-0.7-0.65-1.55-0.98-2.56-0.98h-0.76v-0.63h4.56
		V256.46z M958.56,286.2v4.11h-4.56v-0.63h0.82c1.01,0,1.86-0.35,2.53-1.04c0.67-0.7,1.03-1.51,1.08-2.44H958.56z M962.55,252.34
		v37.97h-4.11v-37.97H962.55z M975.14,252.34c4.18,0,7.78,0.76,10.82,2.28c3.04,1.52,5.38,3.7,7.02,6.55
		c1.65,2.85,2.47,6.23,2.47,10.16c0,3.92-0.82,7.3-2.47,10.13c-1.64,2.83-3.99,5.01-7.02,6.55c-3.04,1.54-6.65,2.31-10.82,2.31
		h-13.48l-0.13-1.9c2.95,0,5.43,0,7.44,0s4.06,0,6.17,0c4.89,0,8.74-1.53,11.55-4.59c2.8-3.06,4.21-7.22,4.21-12.5
		s-1.4-9.44-4.21-12.5c-2.81-3.06-6.66-4.59-11.55-4.59c-2.19,0-4.35,0-6.46,0c-2.11,0-4.71,0-7.78,0v-1.9H975.14z"/>
	<path fill="#FFFFFF" d="M1005.83,256.33h-0.13c-0.04-0.97-0.4-1.77-1.08-2.41s-1.54-0.95-2.59-0.95h-0.89v-0.63h5.51
		L1005.83,256.33z M1005.83,286.26l0.82,4.05h-5.51v-0.63h0.89c1.05,0,1.92-0.34,2.59-1.01c0.67-0.67,1.03-1.48,1.08-2.4H1005.83z
		 M1009.76,252.34v37.97h-4.05v-37.97H1009.76z M1026.72,252.34v1.96h-17.09v-1.96H1026.72z M1023.81,270.38v1.9h-14.18v-1.9
		H1023.81z M1026.78,288.35l-0.13,1.96h-17.02v-1.96H1026.78z M1030.32,281.26l-3.48,9.05h-9.62l2.15-1.96
		c2.11,0,3.81-0.31,5.09-0.92c1.29-0.61,2.33-1.46,3.13-2.53c0.8-1.08,1.5-2.29,2.09-3.64H1030.32z M1026.72,251.33v1.64l-7.21-0.63
		c1.31,0,2.7-0.12,4.18-0.35C1025.16,251.77,1026.17,251.54,1026.72,251.33z M1023.81,266.9v3.61h-3.29v-0.13
		c0.89,0,1.54-0.26,1.96-0.79c0.42-0.53,0.63-1.15,0.63-1.87v-0.82H1023.81z M1023.81,272.15v3.61h-0.7v-0.82
		c0-0.72-0.21-1.34-0.63-1.87c-0.42-0.53-1.08-0.79-1.96-0.79v-0.13H1023.81z M1026.72,254.12v4.37h-0.7v-0.95
		c0-0.89-0.29-1.65-0.85-2.28s-1.34-0.95-2.31-0.95v-0.19H1026.72z"/>
	<path fill="#FFFFFF" d="M1039.69,256.33h-0.13c-0.04-0.97-0.4-1.77-1.08-2.41s-1.52-0.95-2.53-0.95h-0.89v-0.63h5.38
		L1039.69,256.33z M1039.69,286.26l0.76,4.05h-5.38v-0.63h0.89c1.01,0,1.86-0.34,2.53-1.01c0.67-0.67,1.03-1.48,1.08-2.4H1039.69z
		 M1043.55,252.34v37.97h-4.05v-37.97H1043.55z M1043.36,286.26h0.19c0.04,0.93,0.4,1.73,1.08,2.4c0.67,0.68,1.52,1.01,2.53,1.01
		h0.82l0.06,0.63h-5.44L1043.36,286.26z M1050.95,252.34c1.98,0,3.77,0.23,5.35,0.7c1.58,0.46,2.93,1.14,4.05,2.03
		c1.12,0.89,1.97,1.96,2.56,3.23s0.89,2.7,0.89,4.3c0,1.77-0.42,3.42-1.27,4.94c-0.84,1.52-2.02,2.76-3.51,3.73
		c-1.5,0.97-3.2,1.56-5.09,1.77c0.72,0.3,1.55,0.95,2.5,1.96s1.76,2,2.44,2.97c1.1,1.48,2.08,2.75,2.94,3.83
		c0.86,1.08,1.72,2.1,2.56,3.07c0.89,0.97,1.7,1.81,2.44,2.53c0.74,0.72,1.54,1.28,2.4,1.68c0.86,0.4,1.87,0.6,3.01,0.6v0.63h-1.96
		c-2.32,0-4.23-0.29-5.73-0.89c-1.5-0.59-2.71-1.32-3.64-2.18c-0.93-0.86-1.73-1.7-2.41-2.5c-0.17-0.21-0.56-0.75-1.17-1.61
		c-0.61-0.86-1.28-1.8-1.99-2.82c-0.72-1.01-1.37-1.93-1.96-2.75c-0.59-0.82-0.95-1.32-1.08-1.49c-0.84-1.1-1.81-2.08-2.91-2.94
		c-1.1-0.86-2.26-1.3-3.48-1.3v-0.63c1.35,0.04,2.55,0.04,3.61,0c1.18-0.04,2.36-0.14,3.54-0.28c1.18-0.15,2.29-0.6,3.32-1.36
		c1.03-0.76,1.84-2.02,2.44-3.8c0.17-0.46,0.29-1.01,0.38-1.65c0.08-0.63,0.11-1.29,0.06-1.96c-0.04-1.18-0.26-2.24-0.66-3.16
		c-0.4-0.93-0.97-1.73-1.71-2.41c-0.74-0.67-1.61-1.2-2.63-1.58s-2.15-0.59-3.42-0.63c-1.98-0.08-3.71-0.1-5.19-0.06
		c-1.48,0.04-2.21,0.04-2.21,0c0-0.04-0.05-0.22-0.16-0.54c-0.11-0.32-0.26-0.79-0.47-1.42H1050.95z"/>
	<path fill="#FFFFFF" d="M1080.32,285.7c-0.46,1.27-0.4,2.25,0.19,2.94c0.59,0.7,1.27,1.04,2.03,1.04h0.51v0.63h-12.09v-0.63h0.51
		c0.89,0,1.79-0.31,2.72-0.92c0.93-0.61,1.73-1.63,2.4-3.07H1080.32z M1092.53,251.46l0.44,4.37l-14.49,34.3h-3.99l15-32.15
		c0.46-1.01,0.85-1.89,1.17-2.63c0.32-0.74,0.6-1.46,0.85-2.18c0.25-0.72,0.4-1.29,0.44-1.71H1092.53z M1100,275.57v1.9h-16.77v-1.9
		H1100z M1092.53,251.46l17.4,38.48h-5l-13.48-32.84L1092.53,251.46z M1103.23,285.7h4.81c0.63,1.43,1.41,2.46,2.34,3.07
		c0.93,0.61,1.81,0.92,2.66,0.92h0.51v0.63h-12.97v-0.63h0.51c0.72,0,1.37-0.35,1.96-1.04S1103.69,286.96,1103.23,285.7z"/>
	<path fill="#FFFFFF" d="M1121.39,256.4h-0.13c-0.04-0.97-0.42-1.78-1.14-2.44c-0.72-0.65-1.6-0.98-2.66-0.98h-0.76v-0.63h4.68
		V256.4z M1121.39,286.26l0.82,4.05h-5.51v-0.63h0.89c1.05,0,1.92-0.34,2.59-1.01c0.67-0.67,1.03-1.48,1.08-2.4H1121.39z
		 M1125.31,252.34v37.97h-4.05v-37.97H1125.31z M1125.12,256.4v-4.05h4.68v0.63h-0.76c-1.01,0-1.89,0.33-2.63,0.98
		c-0.74,0.65-1.11,1.47-1.11,2.44H1125.12z M1142.33,288.35l-0.13,1.96h-17.02v-1.96H1142.33z M1145.88,281.26l-3.48,9.05h-9.62
		l2.15-1.96c2.11,0,3.81-0.31,5.09-0.92c1.29-0.61,2.33-1.46,3.13-2.53c0.8-1.08,1.5-2.29,2.09-3.64H1145.88z"/>
	<path fill="#FFFFFF" d="M1171,256.46h-0.13c-0.04-1.01-0.41-1.85-1.11-2.5c-0.7-0.65-1.55-0.98-2.56-0.98h-0.76v-0.63h4.56V256.46z
		 M1171,286.2v4.11h-4.56v-0.63h0.82c1.01,0,1.86-0.35,2.53-1.04c0.67-0.7,1.03-1.51,1.08-2.44H1171z M1174.99,252.34v37.97h-4.11
		v-37.97H1174.99z M1187.58,252.34c4.18,0,7.78,0.76,10.82,2.28c3.04,1.52,5.38,3.7,7.02,6.55c1.65,2.85,2.47,6.23,2.47,10.16
		c0,3.92-0.82,7.3-2.47,10.13c-1.64,2.83-3.99,5.01-7.02,6.55c-3.04,1.54-6.65,2.31-10.82,2.31h-13.48l-0.13-1.9
		c2.95,0,5.43,0,7.44,0s4.06,0,6.17,0c4.89,0,8.74-1.53,11.55-4.59c2.8-3.06,4.21-7.22,4.21-12.5s-1.4-9.44-4.21-12.5
		c-2.81-3.06-6.66-4.59-11.55-4.59c-2.19,0-4.35,0-6.46,0c-2.11,0-4.71,0-7.78,0v-1.9H1187.58z"/>
	<path fill="#FFFFFF" d="M1218.27,256.33h-0.13c-0.04-0.97-0.4-1.77-1.08-2.41s-1.54-0.95-2.59-0.95h-0.89v-0.63h5.51
		L1218.27,256.33z M1218.27,286.26l0.82,4.05h-5.51v-0.63h0.89c1.05,0,1.92-0.34,2.59-1.01c0.67-0.67,1.03-1.48,1.08-2.4H1218.27z
		 M1222.2,252.34v37.97h-4.05v-37.97H1222.2z M1239.16,252.34v1.96h-17.09v-1.96H1239.16z M1236.24,270.38v1.9h-14.18v-1.9H1236.24z
		 M1239.22,288.35l-0.13,1.96h-17.02v-1.96H1239.22z M1242.76,281.26l-3.48,9.05h-9.62l2.15-1.96c2.11,0,3.81-0.31,5.09-0.92
		c1.29-0.61,2.33-1.46,3.13-2.53c0.8-1.08,1.5-2.29,2.09-3.64H1242.76z M1239.16,251.33v1.64l-7.21-0.63c1.31,0,2.7-0.12,4.18-0.35
		C1237.59,251.77,1238.61,251.54,1239.16,251.33z M1236.24,266.9v3.61h-3.29v-0.13c0.89,0,1.54-0.26,1.96-0.79
		c0.42-0.53,0.63-1.15,0.63-1.87v-0.82H1236.24z M1236.24,272.15v3.61h-0.7v-0.82c0-0.72-0.21-1.34-0.63-1.87
		c-0.42-0.53-1.08-0.79-1.96-0.79v-0.13H1236.24z M1239.16,254.12v4.37h-0.7v-0.95c0-0.89-0.29-1.65-0.85-2.28s-1.34-0.95-2.31-0.95
		v-0.19H1239.16z"/>
	<path fill="#FFFFFF" d="M1276.36,245.13c0.67,0,1.4,0.04,2.18,0.13c0.78,0.08,1.54,0.2,2.28,0.35c0.74,0.15,1.41,0.3,2.02,0.44
		c0.61,0.15,1.09,0.31,1.42,0.47v7.02h-0.57c0-2.03-0.7-3.62-2.09-4.78c-1.39-1.16-3.08-1.74-5.06-1.74c-2.32,0-4.2,0.73-5.63,2.18
		c-1.43,1.46-2.15,3.15-2.15,5.09c0,0.8,0.18,1.74,0.54,2.82c0.36,1.08,1.02,2.08,1.99,3.01l12.47,11.52
		c1.27,1.18,2.11,2.45,2.53,3.8c0.42,1.35,0.63,2.66,0.63,3.92c0,3.5-1.07,6.35-3.2,8.54c-2.13,2.19-5.01,3.29-8.64,3.29
		c-1.01,0-2.21-0.11-3.58-0.32c-1.37-0.21-2.7-0.58-3.99-1.11c-1.29-0.53-2.35-1.21-3.2-2.06c-0.13-0.67-0.19-1.52-0.19-2.53
		s0.08-2.08,0.25-3.2c0.17-1.12,0.4-2.14,0.7-3.07h0.57c-0.21,2.15,0.06,4.03,0.82,5.63c0.76,1.6,1.87,2.82,3.32,3.64
		c1.46,0.82,3.11,1.19,4.97,1.11c2.32-0.13,4.31-0.94,5.98-2.44c1.67-1.5,2.5-3.51,2.5-6.04c0-1.22-0.21-2.33-0.63-3.32
		s-1.03-1.85-1.83-2.56l-12.15-11.26c-1.27-1.18-2.15-2.48-2.66-3.89c-0.51-1.41-0.76-2.73-0.76-3.96c0-1.77,0.42-3.48,1.27-5.13
		c0.84-1.65,2.1-2.98,3.77-4.02C1271.92,245.65,1273.96,245.13,1276.36,245.13z M1284.27,245.76v1.33h-4.81v-1.33H1284.27z"/>
	<path fill="#FFFFFF" d="M1298.96,285.7c-0.46,1.27-0.4,2.25,0.19,2.94c0.59,0.7,1.27,1.04,2.03,1.04h0.51v0.63h-12.09v-0.63h0.51
		c0.89,0,1.79-0.31,2.72-0.92c0.93-0.61,1.73-1.63,2.4-3.07H1298.96z M1311.17,251.46l0.44,4.37l-14.49,34.3h-3.99l15-32.15
		c0.46-1.01,0.85-1.89,1.17-2.63c0.32-0.74,0.6-1.46,0.85-2.18c0.25-0.72,0.4-1.29,0.44-1.71H1311.17z M1318.64,275.57v1.9h-16.77
		v-1.9H1318.64z M1303.7,248.11h0.63c0.25-0.59,0.54-1.08,0.85-1.46c0.32-0.38,0.7-0.66,1.14-0.85c0.44-0.19,0.92-0.29,1.42-0.29
		c0.72,0,1.49,0.23,2.31,0.7c0.82,0.46,1.7,0.93,2.63,1.39c0.93,0.46,1.84,0.7,2.72,0.7c0.55,0,1.05-0.12,1.52-0.35
		c0.46-0.23,0.88-0.56,1.23-0.98c0.36-0.42,0.65-0.95,0.89-1.58c0.23-0.63,0.39-1.33,0.47-2.09h-0.63c-0.17,0.46-0.42,0.87-0.76,1.2
		c-0.34,0.34-0.73,0.58-1.17,0.73c-0.44,0.15-0.96,0.22-1.55,0.22c-0.72,0-1.48-0.23-2.28-0.7c-0.8-0.46-1.66-0.92-2.56-1.36
		c-0.91-0.44-1.85-0.66-2.82-0.66c-0.51,0-0.98,0.13-1.42,0.38c-0.44,0.25-0.83,0.61-1.17,1.08c-0.34,0.46-0.63,1.02-0.89,1.68
		C1304.02,246.51,1303.83,247.26,1303.7,248.11z M1311.17,251.46l17.4,38.48h-5l-13.48-32.84L1311.17,251.46z M1321.86,285.7h4.81
		c0.63,1.43,1.41,2.46,2.34,3.07c0.93,0.61,1.81,0.92,2.66,0.92h0.51v0.63h-12.97v-0.63h0.51c0.72,0,1.37-0.35,1.96-1.04
		S1322.33,286.96,1321.86,285.7z"/>
	<path fill="#FFFFFF" d="M1355.4,251.46c2.95,0,5.73,0.47,8.32,1.42s4.87,2.31,6.83,4.08c1.96,1.77,3.49,3.87,4.59,6.3
		c1.1,2.43,1.65,5.12,1.65,8.07s-0.55,5.64-1.65,8.07c-1.1,2.43-2.63,4.52-4.59,6.3c-1.96,1.77-4.24,3.13-6.83,4.08
		s-5.37,1.42-8.32,1.42c-2.95,0-5.72-0.47-8.29-1.42c-2.57-0.95-4.84-2.31-6.8-4.08c-1.96-1.77-3.49-3.87-4.59-6.3
		c-1.1-2.43-1.65-5.12-1.65-8.07s0.55-5.64,1.65-8.07c1.1-2.43,2.63-4.53,4.59-6.3c1.96-1.77,4.23-3.13,6.8-4.08
		C1349.69,251.93,1352.45,251.46,1355.4,251.46z M1355.4,289.3c3.12,0,5.95-0.76,8.48-2.28c2.53-1.52,4.54-3.63,6.01-6.33
		c1.48-2.7,2.21-5.82,2.21-9.37c0-3.59-0.74-6.72-2.21-9.4c-1.48-2.68-3.48-4.78-6.01-6.3s-5.36-2.28-8.48-2.28
		c-3.08,0-5.89,0.76-8.42,2.28s-4.54,3.62-6.01,6.3c-1.48,2.68-2.21,5.81-2.21,9.4c0,3.54,0.74,6.67,2.21,9.37
		c1.48,2.7,3.48,4.81,6.01,6.33C1349.52,288.54,1352.32,289.3,1355.4,289.3z"/>
	<path fill="#FFFFFF" d="M1404.57,250.64h-0.19c0-1.1-0.4-2.04-1.2-2.82c-0.8-0.78-1.75-1.17-2.85-1.17h-0.76l-0.06-0.63h5.06
		V250.64z M1404.57,285.7v4.62h-5.06v-0.63h0.82c1.1,0,2.04-0.39,2.82-1.17c0.78-0.78,1.19-1.72,1.23-2.82H1404.57z M1408.5,246.02
		v44.3h-4.11v-44.3H1408.5z M1416.03,246.02c2.7,0,5.02,0.49,6.96,1.46s3.44,2.37,4.49,4.21c1.05,1.83,1.58,4.02,1.58,6.55
		c0,1.94-0.38,3.68-1.14,5.22c-0.76,1.54-1.77,2.84-3.04,3.89c-1.27,1.06-2.7,1.85-4.3,2.37c-1.6,0.53-3.26,0.73-4.97,0.6
		s-3.37-0.61-4.97-1.46v-0.63c1.43,0.21,2.71,0.29,3.83,0.22s2.3-0.29,3.54-0.7c1.24-0.4,2.41-1.11,3.48-2.12
		c1.08-1.01,1.89-2.43,2.44-4.24c0.13-0.46,0.23-1.04,0.32-1.74c0.08-0.7,0.11-1.38,0.06-2.06c-0.04-2.91-0.8-5.25-2.28-7.02
		c-1.48-1.77-3.57-2.66-6.26-2.66h-7.47c-0.21-0.63-0.42-1.27-0.63-1.9H1416.03z M1408.31,285.7h0.19c0.04,1.1,0.45,2.04,1.23,2.82
		c0.78,0.78,1.72,1.17,2.82,1.17h0.82v0.63h-5.06V285.7z"/>
	<path fill="#FFFFFF" d="M1435.58,285.7c-0.46,1.27-0.4,2.25,0.19,2.94c0.59,0.7,1.27,1.04,2.03,1.04h0.51v0.63h-12.09v-0.63h0.51
		c0.89,0,1.79-0.31,2.72-0.92c0.93-0.61,1.73-1.63,2.4-3.07H1435.58z M1447.79,251.46l0.44,4.37l-14.49,34.3h-3.99l15-32.15
		c0.46-1.01,0.85-1.89,1.17-2.63c0.32-0.74,0.6-1.46,0.85-2.18c0.25-0.72,0.4-1.29,0.44-1.71H1447.79z M1455.26,275.57v1.9h-16.77
		v-1.9H1455.26z M1447.79,251.46l17.4,38.48h-5l-13.48-32.84L1447.79,251.46z M1458.49,285.7h4.81c0.63,1.43,1.41,2.46,2.34,3.07
		c0.93,0.61,1.81,0.92,2.66,0.92h0.51v0.63h-12.97v-0.63h0.51c0.72,0,1.37-0.35,1.96-1.04S1458.95,286.96,1458.49,285.7z"/>
	<path fill="#FFFFFF" d="M1472.6,252.34v3.35h-0.13c-0.04-0.76-0.35-1.4-0.92-1.93c-0.57-0.53-1.28-0.79-2.12-0.79h-0.95v-0.63
		H1472.6z M1476.52,252.34v23.92c0,4.09,1.04,7.32,3.13,9.68c2.09,2.36,4.95,3.54,8.58,3.54c4.01,0,7.16-1.12,9.46-3.35
		c2.3-2.24,3.45-5.29,3.45-9.18v-24.62h2.91v24.62c0,4.39-1.4,7.86-4.21,10.41c-2.81,2.55-6.66,3.83-11.55,3.83
		c-4.85,0-8.7-1.27-11.55-3.8s-4.27-5.99-4.27-10.38v-24.68H1476.52z M1480.51,252.34v0.63h-0.95c-0.8,0-1.51,0.26-2.12,0.79
		c-0.61,0.53-0.92,1.17-0.92,1.93h-0.13v-3.35H1480.51z M1501.27,252.34v3.35h-0.13c0-0.76-0.29-1.4-0.89-1.93
		c-0.59-0.53-1.31-0.79-2.15-0.79h-0.95v-0.63H1501.27z M1508.04,252.34v0.63h-0.95c-0.8,0-1.5,0.26-2.09,0.79
		c-0.59,0.53-0.91,1.17-0.95,1.93h-0.13v-3.35H1508.04z"/>
	<path fill="#FFFFFF" d="M1518.42,256.4h-0.13c-0.04-0.97-0.42-1.78-1.14-2.44c-0.72-0.65-1.6-0.98-2.66-0.98h-0.76v-0.63h4.68
		V256.4z M1518.42,286.26l0.82,4.05h-5.51v-0.63h0.89c1.05,0,1.92-0.34,2.59-1.01c0.67-0.67,1.03-1.48,1.08-2.4H1518.42z
		 M1522.34,252.34v37.97h-4.05v-37.97H1522.34z M1522.15,256.4v-4.05h4.68v0.63h-0.76c-1.01,0-1.89,0.33-2.63,0.98
		c-0.74,0.65-1.11,1.47-1.11,2.44H1522.15z M1539.36,288.35l-0.13,1.96h-17.02v-1.96H1539.36z M1542.91,281.26l-3.48,9.05h-9.62
		l2.15-1.96c2.11,0,3.81-0.31,5.09-0.92c1.29-0.61,2.33-1.46,3.13-2.53c0.8-1.08,1.5-2.29,2.09-3.64H1542.91z"/>
	<path fill="#FFFFFF" d="M1568.35,251.46c2.95,0,5.73,0.47,8.32,1.42s4.87,2.31,6.83,4.08c1.96,1.77,3.49,3.87,4.59,6.3
		c1.1,2.43,1.65,5.12,1.65,8.07s-0.55,5.64-1.65,8.07c-1.1,2.43-2.63,4.52-4.59,6.3c-1.96,1.77-4.24,3.13-6.83,4.08
		s-5.37,1.42-8.32,1.42c-2.95,0-5.72-0.47-8.29-1.42c-2.57-0.95-4.84-2.31-6.8-4.08c-1.96-1.77-3.49-3.87-4.59-6.3
		c-1.1-2.43-1.65-5.12-1.65-8.07s0.55-5.64,1.65-8.07c1.1-2.43,2.63-4.53,4.59-6.3c1.96-1.77,4.23-3.13,6.8-4.08
		C1562.63,251.93,1565.39,251.46,1568.35,251.46z M1568.35,289.3c3.12,0,5.95-0.76,8.48-2.28c2.53-1.52,4.54-3.63,6.01-6.33
		c1.48-2.7,2.21-5.82,2.21-9.37c0-3.59-0.74-6.72-2.21-9.4c-1.48-2.68-3.48-4.78-6.01-6.3s-5.36-2.28-8.48-2.28
		c-3.08,0-5.89,0.76-8.42,2.28s-4.54,3.62-6.01,6.3c-1.48,2.68-2.21,5.81-2.21,9.4c0,3.54,0.74,6.67,2.21,9.37
		c1.48,2.7,3.48,4.81,6.01,6.33C1562.46,288.54,1565.27,289.3,1568.35,289.3z"/>
</g>
</svg>
